<svg width="48" height="49" viewBox="0 0 48 49" fill="none" xmlns="http://www.w3.org/2000/svg">
<path d="M24.0018 0.998047C17.4837 0.998047 16.6657 1.02655 14.1056 1.14305C11.5506 1.26005 9.8066 1.66455 8.28059 2.25805C6.70207 2.87105 5.36306 3.69105 4.02904 5.02555C2.69403 6.35955 1.87402 7.69855 1.25901 9.27655C0.664007 10.803 0.259003 12.5475 0.144002 15.1015C0.0300004 17.6615 0 18.48 0 24.998C0 31.516 0.0290008 32.3315 0.145002 34.8915C0.262503 37.4465 0.667007 39.1905 1.26001 40.7165C1.87352 42.295 2.69353 43.6341 4.02804 44.9681C5.36156 46.3031 6.70057 47.125 8.27809 47.738C9.8051 48.3316 11.5496 48.736 14.1041 48.853C16.6642 48.9695 17.4817 48.998 23.9993 48.998C30.5178 48.998 31.3333 48.9695 33.8934 48.853C36.4484 48.736 38.1944 48.3316 39.7214 47.738C41.2994 47.125 42.6364 46.3031 43.97 44.9681C45.305 43.6341 46.125 42.295 46.74 40.717C47.33 39.1905 47.735 37.446 47.855 34.892C47.97 32.332 48 31.516 48 24.998C48 18.48 47.97 17.662 47.855 15.102C47.735 12.547 47.33 10.803 46.74 9.27705C46.125 7.69855 45.305 6.35955 43.97 5.02555C42.6349 3.69055 41.2999 2.87055 39.7199 2.25805C38.1899 1.66455 36.4449 1.26005 33.8899 1.14305C31.3298 1.02655 30.5148 0.998047 23.9947 0.998047H24.0018ZM21.8487 5.32305C22.4877 5.32205 23.2007 5.32305 24.0018 5.32305C30.4098 5.32305 31.1693 5.34605 33.6999 5.46105C36.0399 5.56805 37.3099 5.95905 38.1559 6.28755C39.2759 6.72255 40.0744 7.24255 40.9139 8.08255C41.7539 8.92255 42.2739 9.72255 42.7099 10.8425C43.0385 11.6875 43.43 12.9575 43.5365 15.2975C43.6515 17.8275 43.6765 18.5875 43.6765 24.9925C43.6765 31.3975 43.6515 32.1575 43.5365 34.6875C43.4295 37.0275 43.0385 38.2976 42.7099 39.1425C42.2749 40.2626 41.7539 41.0601 40.9139 41.8996C40.0739 42.7396 39.2764 43.2595 38.1559 43.6945C37.3109 44.0245 36.0399 44.4145 33.6999 44.5215C31.1698 44.6365 30.4098 44.6615 24.0018 44.6615C17.5932 44.6615 16.8337 44.6365 14.3036 44.5215C11.9636 44.4135 10.6936 44.0225 9.8471 43.694C8.72709 43.259 7.92708 42.739 7.08707 41.899C6.24707 41.059 5.72706 40.261 5.29106 39.1405C4.96255 38.2955 4.57105 37.0255 4.46455 34.6855C4.34955 32.1555 4.32655 31.3955 4.32655 24.9865C4.32655 18.5775 4.34955 17.8215 4.46455 15.2915C4.57155 12.9515 4.96255 11.6815 5.29106 10.8355C5.72606 9.71555 6.24707 8.91555 7.08707 8.07555C7.92708 7.23555 8.72709 6.71555 9.8471 6.27955C10.6931 5.94955 11.9636 5.55955 14.3036 5.45205C16.5177 5.35205 17.3757 5.32205 21.8487 5.31705V5.32305Z" fill="url(#paint0_radial_2378_32)"/>
<path d="M36.7613 9.24909C36.1916 9.24909 35.6348 9.41803 35.1611 9.73453C34.6875 10.051 34.3183 10.5009 34.1004 11.0272C33.8824 11.5535 33.8254 12.1326 33.9367 12.6913C34.0479 13.25 34.3223 13.7632 34.7251 14.1659C35.128 14.5687 35.6413 14.8429 36.2 14.9539C36.7588 15.0649 37.3379 15.0077 37.8641 14.7896C38.3903 14.5714 38.8401 14.2022 39.1564 13.7284C39.4728 13.2547 39.6415 12.6977 39.6413 12.1281C39.6413 10.5381 38.3513 9.24809 36.7613 9.24809V9.24909Z" fill="url(#paint1_radial_2378_32)"/>
<path fill-rule="evenodd" clip-rule="evenodd" d="M23.9501 12.6141C17.1436 12.6141 11.625 18.1326 11.625 24.9391C11.625 31.7456 17.1436 37.2616 23.9501 37.2616C30.7567 37.2616 36.2738 31.7456 36.2738 24.9391C36.2738 18.1326 30.7567 12.6141 23.9501 12.6141ZM24 32.8731C28.3493 32.8731 31.875 29.3473 31.875 24.9981C31.875 20.6488 28.3493 17.1231 24 17.1231C19.6508 17.1231 16.125 20.6488 16.125 24.9981C16.125 29.3473 19.6508 32.8731 24 32.8731Z" fill="url(#paint2_radial_2378_32)"/>
<path d="M24.0018 0.998047C17.4837 0.998047 16.6657 1.02655 14.1056 1.14305C11.5506 1.26005 9.8066 1.66455 8.28059 2.25805C6.70207 2.87105 5.36306 3.69105 4.02904 5.02555C2.69403 6.35955 1.87402 7.69855 1.25901 9.27655C0.664007 10.803 0.259003 12.5475 0.144002 15.1015C0.0300004 17.6615 0 18.48 0 24.998C0 31.516 0.0290008 32.3315 0.145002 34.8915C0.262503 37.4465 0.667007 39.1905 1.26001 40.7165C1.87352 42.295 2.69353 43.6341 4.02804 44.9681C5.36156 46.3031 6.70057 47.125 8.27809 47.738C9.8051 48.3316 11.5496 48.736 14.1041 48.853C16.6642 48.9695 17.4817 48.998 23.9993 48.998C30.5178 48.998 31.3333 48.9695 33.8934 48.853C36.4484 48.736 38.1944 48.3316 39.7214 47.738C41.2994 47.125 42.6364 46.3031 43.97 44.9681C45.305 43.6341 46.125 42.295 46.74 40.717C47.33 39.1905 47.735 37.446 47.855 34.892C47.97 32.332 48 31.516 48 24.998C48 18.48 47.97 17.662 47.855 15.102C47.735 12.547 47.33 10.803 46.74 9.27705C46.125 7.69855 45.305 6.35955 43.97 5.02555C42.6349 3.69055 41.2999 2.87055 39.7199 2.25805C38.1899 1.66455 36.4449 1.26005 33.8899 1.14305C31.3298 1.02655 30.5148 0.998047 23.9947 0.998047H24.0018ZM21.8487 5.32305C22.4877 5.32205 23.2007 5.32305 24.0018 5.32305C30.4098 5.32305 31.1693 5.34605 33.6999 5.46105C36.0399 5.56805 37.3099 5.95905 38.1559 6.28755C39.2759 6.72255 40.0744 7.24255 40.9139 8.08255C41.7539 8.92255 42.2739 9.72255 42.7099 10.8425C43.0385 11.6875 43.43 12.9575 43.5365 15.2975C43.6515 17.8275 43.6765 18.5875 43.6765 24.9925C43.6765 31.3975 43.6515 32.1575 43.5365 34.6875C43.4295 37.0275 43.0385 38.2976 42.7099 39.1425C42.2749 40.2626 41.7539 41.0601 40.9139 41.8996C40.0739 42.7396 39.2764 43.2595 38.1559 43.6945C37.3109 44.0245 36.0399 44.4145 33.6999 44.5215C31.1698 44.6365 30.4098 44.6615 24.0018 44.6615C17.5932 44.6615 16.8337 44.6365 14.3036 44.5215C11.9636 44.4135 10.6936 44.0225 9.8471 43.694C8.72709 43.259 7.92708 42.739 7.08707 41.899C6.24707 41.059 5.72706 40.261 5.29106 39.1405C4.96255 38.2955 4.57105 37.0255 4.46455 34.6855C4.34955 32.1555 4.32655 31.3955 4.32655 24.9865C4.32655 18.5775 4.34955 17.8215 4.46455 15.2915C4.57155 12.9515 4.96255 11.6815 5.29106 10.8355C5.72606 9.71555 6.24707 8.91555 7.08707 8.07555C7.92708 7.23555 8.72709 6.71555 9.8471 6.27955C10.6931 5.94955 11.9636 5.55955 14.3036 5.45205C16.5177 5.35205 17.3757 5.32205 21.8487 5.31705V5.32305Z" fill="url(#paint3_radial_2378_32)"/>
<path d="M36.7613 9.24909C36.1916 9.24909 35.6348 9.41803 35.1611 9.73453C34.6875 10.051 34.3183 10.5009 34.1004 11.0272C33.8824 11.5535 33.8254 12.1326 33.9367 12.6913C34.0479 13.25 34.3223 13.7632 34.7251 14.1659C35.128 14.5687 35.6413 14.8429 36.2 14.9539C36.7588 15.0649 37.3379 15.0077 37.8641 14.7896C38.3903 14.5714 38.8401 14.2022 39.1564 13.7284C39.4728 13.2547 39.6415 12.6977 39.6413 12.1281C39.6413 10.5381 38.3513 9.24809 36.7613 9.24809V9.24909Z" fill="url(#paint4_radial_2378_32)"/>
<path fill-rule="evenodd" clip-rule="evenodd" d="M23.9501 12.6141C17.1436 12.6141 11.625 18.1326 11.625 24.9391C11.625 31.7456 17.1436 37.2616 23.9501 37.2616C30.7567 37.2616 36.2738 31.7456 36.2738 24.9391C36.2738 18.1326 30.7567 12.6141 23.9501 12.6141ZM24 32.8731C28.3493 32.8731 31.875 29.3473 31.875 24.9981C31.875 20.6488 28.3493 17.1231 24 17.1231C19.6508 17.1231 16.125 20.6488 16.125 24.9981C16.125 29.3473 19.6508 32.8731 24 32.8731Z" fill="url(#paint5_radial_2378_32)"/>
<defs>
<radialGradient id="paint0_radial_2378_32" cx="0" cy="0" r="1" gradientUnits="userSpaceOnUse" gradientTransform="translate(12.7501 52.6951) rotate(-90) scale(47.5715 44.2453)">
<stop stop-color="#FFDD55"/>
<stop offset="0.1" stop-color="#FFDD55"/>
<stop offset="0.5" stop-color="#FF543E"/>
<stop offset="1" stop-color="#C837AB"/>
</radialGradient>
<radialGradient id="paint1_radial_2378_32" cx="0" cy="0" r="1" gradientUnits="userSpaceOnUse" gradientTransform="translate(12.7501 52.6951) rotate(-90) scale(47.5715 44.2453)">
<stop stop-color="#FFDD55"/>
<stop offset="0.1" stop-color="#FFDD55"/>
<stop offset="0.5" stop-color="#FF543E"/>
<stop offset="1" stop-color="#C837AB"/>
</radialGradient>
<radialGradient id="paint2_radial_2378_32" cx="0" cy="0" r="1" gradientUnits="userSpaceOnUse" gradientTransform="translate(12.7501 52.6951) rotate(-90) scale(47.5715 44.2453)">
<stop stop-color="#FFDD55"/>
<stop offset="0.1" stop-color="#FFDD55"/>
<stop offset="0.5" stop-color="#FF543E"/>
<stop offset="1" stop-color="#C837AB"/>
</radialGradient>
<radialGradient id="paint3_radial_2378_32" cx="0" cy="0" r="1" gradientUnits="userSpaceOnUse" gradientTransform="translate(-8.04025 4.45589) rotate(78.6806) scale(21.2647 87.6539)">
<stop stop-color="#3771C8"/>
<stop offset="0.128" stop-color="#3771C8"/>
<stop offset="1" stop-color="#6600FF" stop-opacity="0"/>
</radialGradient>
<radialGradient id="paint4_radial_2378_32" cx="0" cy="0" r="1" gradientUnits="userSpaceOnUse" gradientTransform="translate(-8.04025 4.45589) rotate(78.6806) scale(21.2647 87.6539)">
<stop stop-color="#3771C8"/>
<stop offset="0.128" stop-color="#3771C8"/>
<stop offset="1" stop-color="#6600FF" stop-opacity="0"/>
</radialGradient>
<radialGradient id="paint5_radial_2378_32" cx="0" cy="0" r="1" gradientUnits="userSpaceOnUse" gradientTransform="translate(-8.04025 4.45589) rotate(78.6806) scale(21.2647 87.6539)">
<stop stop-color="#3771C8"/>
<stop offset="0.128" stop-color="#3771C8"/>
<stop offset="1" stop-color="#6600FF" stop-opacity="0"/>
</radialGradient>
</defs>
</svg>
