<svg width="43" height="49" viewBox="0 0 43 49" fill="none" xmlns="http://www.w3.org/2000/svg">
<path d="M40.0051 13.7136V12.035C37.9495 12.0381 35.9343 11.4604 34.1903 10.3679C35.7342 12.0642 37.7671 13.2338 40.0051 13.7136ZM29.1734 2.91801C29.1211 2.61787 29.0809 2.31575 29.053 2.01247V0.998047H21.148V32.4997C21.1354 36.1716 18.1658 39.1452 14.5033 39.1452C13.428 39.1452 12.4128 38.889 11.5137 38.4339C12.7279 40.0329 14.6452 41.0651 16.8033 41.0651C20.4652 41.0651 23.4354 38.0919 23.4482 34.4195V2.91801H29.1734ZM16.5203 19.8449V18.0578C15.8598 17.9672 15.1938 17.9218 14.5271 17.9221C6.50383 17.9219 0 24.4488 0 32.4997C0 37.5471 2.55612 41.9954 6.44034 44.612C3.87848 41.984 2.30002 38.3869 2.30002 34.4193C2.30002 26.4711 8.63847 20.0083 16.5203 19.8449Z" fill="#00F2EA"/>
<path d="M29.0529 16.4047C32.1404 18.6189 35.9213 19.9217 40.005 19.9217V13.7136C37.7255 13.2263 35.7075 12.0309 34.1903 10.368C31.5931 8.74162 29.722 6.05845 29.1733 2.91797H23.4482V34.4193C23.4352 38.0917 20.4655 41.0653 16.8032 41.0653C14.6451 41.0653 12.7279 40.0329 11.5136 38.4337C9.34538 37.3354 7.85846 35.0807 7.85846 32.4769C7.85846 28.7943 10.8331 25.8085 14.5032 25.8085C15.2064 25.8085 15.8842 25.9184 16.5199 26.1208V19.8448C8.63842 20.0082 2.2998 26.4711 2.2998 34.4194C2.2998 38.3872 3.87827 41.9841 6.44013 44.6123C8.7513 46.1697 11.5335 47.078 14.5268 47.078C22.5494 47.078 29.0531 40.5511 29.0531 32.4998V16.4047H29.0529Z" fill="black"/>
<path d="M31.3529 18.325C34.4396 20.5393 38.221 21.8422 42.305 21.8422V13.9553C41.5321 13.9554 40.7612 13.8745 40.005 13.7138V19.9219C35.9213 19.9219 32.1404 18.619 29.0529 16.4049V32.4998C29.0529 40.5513 22.5491 47.0779 14.5267 47.0779C11.5333 47.0779 8.75111 46.1697 6.43994 44.6121C9.07776 47.3189 12.7564 48.998 16.8262 48.998C24.8491 48.998 31.3533 42.4714 31.3533 34.4196V18.325H31.3529ZM34.1902 10.368C32.6128 8.6385 31.577 6.4034 31.3529 3.9324V2.91797H29.1733C29.722 6.05861 31.5933 8.74179 34.1902 10.368ZM11.5141 38.4337C10.6328 37.2739 10.1565 35.8552 10.1586 34.3965C10.1586 30.7141 13.1334 27.7283 16.8035 27.7283C17.4875 27.7281 18.1674 27.8332 18.8192 28.0408V19.9776C18.0575 19.8728 17.2887 19.8283 16.5202 19.8446V26.1207C15.8679 25.9131 15.1877 25.8077 14.5035 25.8083C10.8334 25.8083 7.85877 28.7938 7.85877 32.4767C7.85877 35.0808 9.34568 37.3354 11.5141 38.4337Z" fill="#FF004F"/>
</svg>
