<svg width="48" height="35" viewBox="0 0 48 35" fill="none" xmlns="http://www.w3.org/2000/svg">
<path d="M46.9964 6.30643C46.725 5.27977 46.1902 4.34277 45.4454 3.58921C44.7007 2.83566 43.7721 2.29197 42.7527 2.01256C39 0.998047 24 0.998047 24 0.998047C24 0.998047 9 0.998047 5.24727 2.01256C4.22786 2.29197 3.29932 2.83566 2.55458 3.58921C1.80983 4.34277 1.27501 5.27977 1.00364 6.30643C1.19209e-07 10.0958 0 17.998 0 17.998C0 17.998 1.19209e-07 25.9003 1.00364 29.6897C1.27501 30.7163 1.80983 31.6533 2.55458 32.4069C3.29932 33.1604 4.22786 33.7041 5.24727 33.9835C9 34.998 24 34.998 24 34.998C24 34.998 39 34.998 42.7527 33.9835C43.7721 33.7041 44.7007 33.1604 45.4454 32.4069C46.1902 31.6533 46.725 30.7163 46.9964 29.6897C48 25.9003 48 17.998 48 17.998C48 17.998 48 10.0958 46.9964 6.30643Z" fill="#FF0302"/>
<path d="M19.0911 25.174V10.8228L31.6365 17.9984L19.0911 25.174Z" fill="#FEFEFE"/>
</svg>
