<svg width="479" height="574" viewBox="0 0 479 574" fill="none" xmlns="http://www.w3.org/2000/svg">
<rect x="478" y="331" width="329" height="1.00001" transform="rotate(-90 478 331)" fill="#D7D7D7"/>
<rect x="478" y="573" width="242" height="1.00001" transform="rotate(-90 478 573)" fill="#D7D7D7"/>
<circle cx="123" cy="123" r="122.5" transform="matrix(1 0 0 -1 233 246)" stroke="#D7D7D7"/>
<mask id="path-4-inside-1_2768_286" fill="white">
<path fill-rule="evenodd" clip-rule="evenodd" d="M234 340L234 574L0.000146107 574C0.000146107 574 0.000146107 574 0.000146107 574C0.000151749 444.916 104.724 340.244 234 340Z"/>
</mask>
<path d="M234 340L235 340L235 338.998L233.998 339L234 340ZM234 574L234 575L235 575L235 574L234 574ZM0.000146107 574L-0.999854 574L-0.999854 575L0.000146063 575L0.000146107 574ZM233 340L233 574L235 574L235 340L233 340ZM234 573L0.00014615 573L0.000146063 575L234 575L234 573ZM1.00015 574C1.00015 574 1.00015 574 1.00015 574C1.00015 574 1.00015 574 1.00015 574L-0.999854 574C-0.999854 574 -0.999854 574 -0.999854 574C-0.999854 574 -0.999854 574 -0.999854 574L1.00015 574ZM1.00015 574C1.00015 445.469 105.275 341.242 234.002 341L233.998 339C104.172 339.245 -0.999848 444.362 -0.999854 574L1.00015 574Z" fill="#D7D7D7" mask="url(#path-4-inside-1_2768_286)"/>
<rect x="233" y="341" width="340" height="1.00001" transform="rotate(-90 233 341)" fill="#D7D7D7"/>
<rect width="244" height="1.00002" transform="matrix(-1 -8.74228e-08 -8.74228e-08 1 478 245)" fill="#D7D7D7"/>
<rect width="574" height="1.00003" transform="matrix(4.37114e-08 -1 -1 -4.37114e-08 1 574)" fill="#D7D7D7"/>
</svg>
