<svg width="602" height="805" viewBox="0 0 602 805" fill="none" xmlns="http://www.w3.org/2000/svg">
<circle cx="451" cy="151" r="150.5" stroke="#D7D7D7"/>
<mask id="path-2-inside-1_2702_148" fill="white">
<path fill-rule="evenodd" clip-rule="evenodd" d="M4.78344e-05 301.999C0.000543398 135.403 134.709 0.314166 301 0L301 301.999L4.78344e-05 301.999Z"/>
</mask>
<path d="M4.78344e-05 301.999L-0.999952 301.999L-0.999955 302.999L4.77906e-05 302.999L4.78344e-05 301.999ZM301 0L302 4.37114e-08L302 -1.00189L300.998 -0.999998L301 0ZM301 301.999L301 302.999L302 302.999L302 301.999L301 301.999ZM1.00005 301.999C1.00054 135.954 135.263 1.31312 301.002 0.999998L300.998 -0.999998C134.154 -0.684788 -0.999455 134.853 -0.999952 301.999L1.00005 301.999ZM300 -4.37114e-08L300 301.999L302 301.999L302 4.37114e-08L300 -4.37114e-08ZM301 300.999L4.78781e-05 300.999L4.77906e-05 302.999L301 302.999L301 300.999Z" fill="#D7D7D7" mask="url(#path-2-inside-1_2702_148)"/>
<mask id="path-4-inside-2_2702_148" fill="white">
<path fill-rule="evenodd" clip-rule="evenodd" d="M601.999 301C601.999 301 601.999 301.001 601.999 301.002C601.999 578.512 377.784 803.54 101 804.063L101 301L601.999 301Z"/>
</mask>
<path d="M601.999 301L602.999 301L602.999 300L601.999 300L601.999 301ZM101 804.063L100 804.063L100 805.065L101.002 805.063L101 804.063ZM101 301L101 300L100 300L100 301L101 301ZM600.999 301C600.999 301 600.999 301 600.999 301C600.999 301 600.999 301 600.999 301C600.999 301.001 600.999 301 600.999 301.001C600.999 301.001 600.999 301.001 600.999 301.001C600.999 301.001 600.999 301.001 600.999 301.001C600.999 301.001 600.999 301.001 600.999 301.001C600.999 301.001 600.999 301.001 600.999 301.001C600.999 301.001 600.999 301.001 600.999 301.001C600.999 301.001 600.999 301.001 600.999 301.001C600.999 301.001 600.999 301.001 600.999 301.001C600.999 301.001 600.999 301.001 600.999 301.001C600.999 301.001 600.999 301.001 600.999 301.001C600.999 301.001 600.999 301.001 600.999 301.001C600.999 301.001 600.999 301.001 600.999 301.001C600.999 301.001 600.999 301.001 600.999 301.001C600.999 301.001 600.999 301.001 600.999 301.001C600.999 301.001 600.999 301.001 600.999 301.001C600.999 301.001 600.999 301.001 600.999 301.001C600.999 301.001 600.999 301.001 600.999 301.001C600.999 301.001 600.999 301.001 600.999 301.001C600.999 301.001 600.999 301.001 600.999 301.001C600.999 301.001 600.999 301.001 600.999 301.001C600.999 301.001 600.999 301.001 600.999 301.001C600.999 301.001 600.999 301.001 600.999 301.001C600.999 301.001 600.999 301.001 600.999 301.001C600.999 301.001 600.999 301.001 600.999 301.001C600.999 301.001 600.999 301.001 600.999 301.001C600.999 301.001 600.999 301.001 600.999 301.001C600.999 301.001 600.999 301.001 600.999 301.001C600.999 301.001 600.999 301.001 600.999 301.001C600.999 301.001 600.999 301.001 600.999 301.001C600.999 301.001 600.999 301.001 600.999 301.001C600.999 301.001 600.999 301.001 600.999 301.001C600.999 301.001 600.999 301.001 600.999 301.001C600.999 301.001 600.999 301.001 600.999 301.001C600.999 301.001 600.999 301.001 600.999 301.002L602.999 301.002C602.999 301.001 602.999 301.001 602.999 301.001C602.999 301.001 602.999 301.001 602.999 301.001C602.999 301.001 602.999 301.001 602.999 301.001C602.999 301.001 602.999 301.001 602.999 301.001C602.999 301.001 602.999 301.001 602.999 301.001C602.999 301.001 602.999 301.001 602.999 301.001C602.999 301.001 602.999 301.001 602.999 301.001C602.999 301.001 602.999 301.001 602.999 301.001C602.999 301.001 602.999 301.001 602.999 301.001C602.999 301.001 602.999 301.001 602.999 301.001C602.999 301.001 602.999 301.001 602.999 301.001C602.999 301.001 602.999 301.001 602.999 301.001C602.999 301.001 602.999 301.001 602.999 301.001C602.999 301.001 602.999 301.001 602.999 301.001C602.999 301.001 602.999 301.001 602.999 301.001C602.999 301.001 602.999 301.001 602.999 301.001C602.999 301.001 602.999 301.001 602.999 301.001C602.999 301.001 602.999 301.001 602.999 301.001C602.999 301.001 602.999 301.001 602.999 301.001C602.999 301.001 602.999 301.001 602.999 301.001C602.999 301.001 602.999 301.001 602.999 301.001C602.999 301.001 602.999 301.001 602.999 301.001C602.999 301.001 602.999 301.001 602.999 301.001C602.999 301.001 602.999 301.001 602.999 301.001C602.999 301.001 602.999 301.001 602.999 301.001C602.999 301.001 602.999 301.001 602.999 301.001C602.999 301.001 602.999 301.001 602.999 301.001C602.999 301.001 602.999 301.001 602.999 301.001C602.999 301.001 602.999 301.001 602.999 301.001C602.999 301.001 602.999 301.001 602.999 301.001C602.999 301.001 602.999 301.001 602.999 301.001C602.999 301.001 602.999 301.001 602.999 301.001C602.999 301.001 602.999 301.001 602.999 301.001C602.999 301.001 602.999 301.001 602.999 301.001C602.999 301.001 602.999 301.001 602.999 301.001C602.999 301 602.999 301.001 602.999 301C602.999 301 602.999 301 602.999 301C602.999 301 602.999 301 602.999 301L600.999 301ZM600.999 301.002C600.999 577.963 377.228 802.541 100.998 803.063L101.002 805.063C378.339 804.539 602.999 579.062 602.999 301.002L600.999 301.002ZM102 804.063L102 301L100 301L100 804.063L102 804.063ZM101 302L601.999 302L601.999 300L101 300L101 302Z" fill="#D7D7D7" mask="url(#path-4-inside-2_2702_148)"/>
<rect x="601" y="803" width="802" height="1.00004" transform="rotate(-90 601 803)" fill="#D7D7D7"/>
</svg>
