<svg width="1440" height="245" viewBox="0 0 1440 245" fill="none" xmlns="http://www.w3.org/2000/svg">
<rect x="-782" width="3004" height="1" fill="#D7D7D7"/>
<rect x="-782" y="243" width="3004" height="1" fill="#D7D7D7"/>
<rect x="243" y="122" width="695" height="1" fill="#D7D7D7"/>
<rect x="694" y="1" width="122" height="0.999995" transform="rotate(90 694 1)" fill="#D7D7D7"/>
<rect x="938" y="123" width="121" height="0.999995" transform="rotate(90 938 123)" fill="#D7D7D7"/>
<path d="M937.5 122C937.5 189.101 882.881 243.5 815.5 243.5C748.119 243.5 693.5 189.101 693.5 122C693.5 54.8993 748.119 0.5 815.5 0.5C882.881 0.5 937.5 54.8993 937.5 122Z" stroke="#D7D7D7"/>
<mask id="path-7-inside-1_2235_413" fill="white">
<path fill-rule="evenodd" clip-rule="evenodd" d="M0 0L244 0L244 244.018C109.399 244.017 0.253413 134.81 0 0Z"/>
</mask>
<path d="M0 0L0 -1L-1.00188 -1L-0.999998 0.00187977L0 0ZM244 0L245 0V-1L244 -1V0ZM244 244.018L244 245.018L245 245.018V244.018H244ZM0 1L244 1V-1L0 -1L0 1ZM243 0L243 244.018H245L245 0L243 0ZM244 243.018C109.952 243.017 1.25238 134.259 0.999998 -0.00187977L-0.999998 0.00187977C-0.745553 135.362 108.845 245.017 244 245.018L244 243.018Z" fill="#D7D7D7" mask="url(#path-7-inside-1_2235_413)"/>
<mask id="mask0_2235_413" style="mask-type:alpha" maskUnits="userSpaceOnUse" x="972" y="0" width="468" height="243">
<rect x="972" width="468" height="243" fill="#D9D9D9"/>
</mask>
<g mask="url(#mask0_2235_413)">
<path d="M877 606.931V607.431H876.499L876.5 606.93L877 606.931ZM1486.11 606.931H1486.61V607.431H1486.11V606.931ZM1486.11 -0.999817V-1.49982H1486.61V-0.999817H1486.11ZM877 606.431L1486.11 606.431V607.431L877 607.431V606.431ZM1485.61 606.931L1485.61 -0.999817H1486.61L1486.61 606.931H1485.61ZM1486.11 -0.499817C1486.11 -0.499817 1486.11 -0.499817 1486.11 -0.499817C1486.11 -0.499817 1486.11 -0.499817 1486.11 -0.499817C1486.11 -0.499817 1486.11 -0.499817 1486.11 -0.499817C1486.11 -0.499817 1486.11 -0.499817 1486.11 -0.499817C1486.11 -0.499817 1486.11 -0.499817 1486.11 -0.499817C1486.11 -0.499817 1486.11 -0.499817 1486.11 -0.499817C1486.11 -0.499817 1486.11 -0.499817 1486.11 -0.499817C1486.11 -0.499817 1486.11 -0.499817 1486.11 -0.499817C1486.11 -0.499817 1486.11 -0.499817 1486.11 -0.499817C1486.11 -0.499817 1486.11 -0.499817 1486.11 -0.499817C1486.11 -0.499817 1486.11 -0.499817 1486.11 -0.499817C1486.11 -0.499817 1486.11 -0.499817 1486.11 -0.499817C1486.11 -0.499817 1486.11 -0.499817 1486.11 -0.499817C1486.11 -0.499817 1486.11 -0.499817 1486.11 -0.499817C1486.11 -0.499817 1486.11 -0.499817 1486.11 -0.499817C1486.11 -0.499817 1486.11 -0.499817 1486.11 -0.499817C1486.11 -0.499817 1486.11 -0.499817 1486.11 -0.499817C1486.11 -0.499817 1486.11 -0.499817 1486.11 -0.499817C1486.11 -0.499817 1486.11 -0.499817 1486.11 -0.499817C1486.11 -0.499817 1486.11 -0.499817 1486.11 -0.499817C1486.11 -0.499817 1486.11 -0.499817 1486.11 -0.499817C1486.11 -0.499817 1486.11 -0.499817 1486.11 -0.499817C1486.11 -0.499817 1486.11 -0.499817 1486.11 -0.499817C1486.11 -0.499817 1486.11 -0.499817 1486.11 -0.499817C1486.11 -0.499817 1486.11 -0.499817 1486.11 -0.499817C1486.11 -0.499817 1486.11 -0.499817 1486.11 -0.499817C1486.11 -0.499817 1486.11 -0.499817 1486.11 -0.499817C1486.11 -0.499817 1486.11 -0.499817 1486.11 -0.499817C1486.11 -0.499817 1486.11 -0.499817 1486.11 -0.499817C1486.11 -0.499817 1486.11 -0.499817 1486.11 -0.499817C1486.11 -0.499817 1486.11 -0.499817 1486.11 -0.499817C1486.11 -0.499817 1486.11 -0.499817 1486.11 -0.499817C1486.11 -0.499817 1486.11 -0.499817 1486.11 -0.499817C1486.11 -0.499817 1486.11 -0.499817 1486.11 -0.499817C1486.11 -0.499817 1486.11 -0.499817 1486.11 -0.499817C1486.11 -0.499817 1486.11 -0.499817 1486.11 -0.499817C1486.11 -0.499817 1486.11 -0.499817 1486.11 -0.499817C1486.11 -0.499817 1486.11 -0.499817 1486.11 -0.499817C1486.11 -0.499817 1486.11 -0.499817 1486.11 -0.499817C1486.11 -0.499817 1486.11 -0.499817 1486.11 -0.499817C1486.11 -0.499817 1486.11 -0.499817 1486.11 -0.499817C1486.11 -0.499817 1486.11 -0.499817 1486.11 -0.499817C1486.11 -0.499817 1486.11 -0.499817 1486.11 -0.499817C1486.11 -0.499817 1486.11 -0.499817 1486.11 -0.499817C1486.11 -0.499817 1486.11 -0.499817 1486.11 -0.499817C1486.11 -0.499817 1486.11 -0.499817 1486.11 -0.499817C1486.11 -0.499817 1486.11 -0.499817 1486.11 -0.499817C1486.11 -0.499817 1486.11 -0.499817 1486.11 -0.499817C1486.11 -0.499817 1486.11 -0.499817 1486.11 -0.499817C1486.11 -0.499817 1486.11 -0.499817 1486.11 -0.499817C1486.11 -0.499817 1486.11 -0.499817 1486.11 -0.499817C1486.11 -0.499817 1486.11 -0.499817 1486.11 -0.499817C1486.11 -0.499817 1486.11 -0.499817 1486.11 -0.499817C1486.11 -0.499817 1486.11 -0.499817 1486.11 -0.499817C1486.11 -0.499817 1486.11 -0.499817 1486.11 -0.499817C1486.11 -0.499817 1486.11 -0.499817 1486.11 -0.499817C1486.11 -0.499817 1486.11 -0.499817 1486.11 -0.499817C1486.11 -0.499817 1486.11 -0.499817 1486.11 -0.499817C1486.11 -0.499817 1486.11 -0.499817 1486.11 -0.499817C1486.11 -0.499817 1486.11 -0.499817 1486.11 -0.499817C1486.11 -0.499817 1486.11 -0.499817 1486.11 -0.499817C1486.11 -0.499817 1486.11 -0.499817 1486.11 -0.499817C1486.11 -0.499817 1486.11 -0.499817 1486.11 -0.499817C1486.11 -0.499817 1486.11 -0.499817 1486.11 -0.499817C1486.11 -0.499817 1486.11 -0.499817 1486.11 -0.499817C1486.11 -0.499817 1486.11 -0.499817 1486.11 -0.499817C1486.11 -0.499817 1486.11 -0.499817 1486.11 -0.499817C1486.11 -0.499817 1486.11 -0.499817 1486.11 -0.499817C1486.11 -0.499817 1486.11 -0.499817 1486.11 -0.499817C1486.11 -0.499817 1486.11 -0.499817 1486.11 -0.499817C1486.11 -0.499817 1486.11 -0.499817 1486.11 -0.499817C1486.11 -0.499817 1486.11 -0.499817 1486.11 -0.499817C1486.11 -0.499817 1486.11 -0.499817 1486.11 -0.499817C1486.11 -0.499817 1486.11 -0.499817 1486.11 -0.499817C1486.11 -0.499817 1486.11 -0.499817 1486.11 -0.499817C1486.11 -0.499817 1486.11 -0.499817 1486.11 -0.499817C1486.11 -0.499817 1486.11 -0.499817 1486.11 -0.499817C1486.11 -0.499817 1486.11 -0.499817 1486.11 -0.499817C1486.11 -0.499817 1486.11 -0.499817 1486.11 -0.499817C1486.11 -0.499817 1486.11 -0.499817 1486.11 -0.499817C1486.11 -0.499817 1486.11 -0.499817 1486.11 -0.499817C1486.11 -0.499817 1486.11 -0.499817 1486.11 -0.499817C1486.11 -0.499817 1486.11 -0.499817 1486.11 -0.499817C1486.11 -0.499817 1486.11 -0.499817 1486.11 -0.499817C1486.11 -0.499817 1486.11 -0.499817 1486.11 -0.499817C1486.11 -0.499817 1486.11 -0.499817 1486.11 -0.499817C1486.11 -0.499817 1486.11 -0.499817 1486.11 -0.499817C1486.11 -0.499817 1486.11 -0.499817 1486.11 -0.499817C1486.11 -0.499817 1486.11 -0.499817 1486.11 -0.499817C1486.11 -0.499817 1486.11 -0.499817 1486.11 -0.499817C1486.11 -0.499817 1486.11 -0.499817 1486.11 -0.499817C1486.11 -0.499817 1486.11 -0.499817 1486.11 -0.499817C1486.11 -0.499817 1486.11 -0.499817 1486.11 -0.499817C1486.11 -0.499817 1486.11 -0.499817 1486.11 -0.499817C1486.11 -0.499817 1486.11 -0.499817 1486.11 -0.499817C1486.11 -0.499817 1486.11 -0.499817 1486.11 -0.499817C1486.11 -0.499817 1486.11 -0.499817 1486.11 -0.499817C1486.11 -0.499817 1486.11 -0.499817 1486.11 -0.499817C1486.11 -0.499817 1486.11 -0.499817 1486.11 -0.499817C1486.11 -0.499817 1486.11 -0.499817 1486.11 -0.499817C1486.11 -0.499817 1486.11 -0.499817 1486.11 -0.499817C1486.11 -0.499817 1486.11 -0.499817 1486.11 -0.499817C1486.11 -0.499817 1486.11 -0.499817 1486.11 -0.499817C1486.11 -0.499817 1486.11 -0.499817 1486.11 -0.499817C1486.11 -0.499817 1486.11 -0.499817 1486.11 -0.499817C1486.11 -0.499817 1486.11 -0.499817 1486.11 -0.499817C1486.11 -0.499817 1486.11 -0.499817 1486.11 -0.499817C1486.11 -0.499817 1486.11 -0.499817 1486.11 -0.499817C1486.11 -0.499817 1486.11 -0.499817 1486.11 -0.499817C1486.11 -0.499817 1486.11 -0.499817 1486.11 -0.499817C1486.11 -0.499817 1486.11 -0.499817 1486.11 -0.499817C1486.11 -0.499817 1486.11 -0.499817 1486.11 -0.499817C1486.11 -0.499817 1486.11 -0.499817 1486.11 -0.499817C1486.11 -0.499817 1486.11 -0.499817 1486.11 -0.499817C1486.11 -0.499817 1486.11 -0.499817 1486.11 -0.499817C1486.11 -0.499817 1486.11 -0.499817 1486.11 -0.499817C1486.11 -0.499817 1486.11 -0.499817 1486.11 -0.499817C1486.11 -0.499817 1486.11 -0.499817 1486.11 -0.499817C1486.11 -0.499817 1486.11 -0.499817 1486.11 -0.499817C1486.11 -0.499817 1486.11 -0.499817 1486.11 -0.499817C1486.11 -0.499817 1486.11 -0.499817 1486.11 -0.499817C1486.11 -0.499817 1486.11 -0.499817 1486.11 -0.499817C1486.11 -0.499817 1486.11 -0.499817 1486.11 -0.499817C1486.11 -0.499817 1486.11 -0.499817 1486.11 -0.499817C1486.11 -0.499817 1486.11 -0.499817 1486.11 -0.499817C1486.11 -0.499817 1486.11 -0.499817 1486.11 -0.499817C1486.11 -0.499817 1486.11 -0.499817 1486.11 -0.499817C1486.11 -0.499817 1486.11 -0.499817 1486.11 -0.499817C1486.11 -0.499817 1486.11 -0.499817 1486.11 -0.499817C1486.11 -0.499817 1486.11 -0.499817 1486.11 -0.499817C1486.11 -0.499817 1486.11 -0.499817 1486.11 -0.499817C1486.11 -0.499817 1486.11 -0.499817 1486.11 -0.499817C1486.11 -0.499817 1486.11 -0.499817 1486.11 -0.499817C1486.11 -0.499817 1486.11 -0.499817 1486.11 -0.499817C1486.11 -0.499817 1486.11 -0.499817 1486.11 -0.499817C1486.11 -0.499817 1486.11 -0.499817 1486.11 -0.499817C1486.11 -0.499817 1486.11 -0.499817 1486.11 -0.499817C1486.11 -0.499817 1486.11 -0.499817 1486.11 -0.499817C1486.11 -0.499817 1486.11 -0.499817 1486.11 -0.499817C1486.11 -0.499817 1486.11 -0.499817 1486.11 -0.499817C1486.11 -0.499817 1486.11 -0.499817 1486.11 -0.499817C1486.11 -0.499817 1486.11 -0.499817 1486.11 -0.499817C1486.11 -0.499817 1486.11 -0.499817 1486.11 -0.499817C1486.11 -0.499817 1486.11 -0.499817 1486.11 -0.499817C1486.11 -0.499817 1486.11 -0.499817 1486.11 -0.499817C1486.11 -0.499817 1486.11 -0.499817 1486.11 -0.499817C1486.11 -0.499817 1486.11 -0.499817 1486.11 -0.499817C1486.11 -0.499817 1486.11 -0.499817 1486.11 -0.499817C1486.11 -0.499817 1486.11 -0.499817 1486.11 -0.499817C1486.11 -0.499817 1486.11 -0.499817 1486.11 -0.499817C1486.11 -0.499817 1486.11 -0.499817 1486.11 -0.499817C1486.11 -0.499817 1486.11 -0.499817 1486.11 -0.499817C1486.11 -0.499817 1486.11 -0.499817 1486.11 -0.499817C1486.11 -0.499817 1486.11 -0.499817 1486.11 -0.499817C1486.11 -0.499817 1486.11 -0.499817 1486.11 -0.499817C1486.11 -0.499817 1486.11 -0.499817 1486.11 -0.499817C1486.11 -0.499817 1486.11 -0.499817 1486.11 -0.499817C1486.11 -0.499817 1486.11 -0.499817 1486.11 -0.499817C1486.11 -0.499817 1486.11 -0.499817 1486.11 -0.499817C1486.11 -0.499817 1486.11 -0.499817 1486.11 -0.499817C1486.11 -0.499817 1486.11 -0.499817 1486.11 -0.499817C1486.11 -0.499817 1486.11 -0.499817 1486.11 -0.499817C1486.11 -0.499817 1486.11 -0.499817 1486.11 -0.499817C1486.11 -0.499817 1486.11 -0.499817 1486.11 -0.499817C1486.11 -0.499817 1486.11 -0.499817 1486.11 -0.499817C1486.11 -0.499817 1486.11 -0.499817 1486.11 -0.499817C1486.11 -0.499817 1486.11 -0.499817 1486.11 -0.499817C1486.11 -0.499817 1486.11 -0.499817 1486.11 -0.499817C1486.11 -0.499817 1486.11 -0.499817 1486.11 -0.499817C1486.11 -0.499817 1486.11 -0.499817 1486.11 -0.499817C1486.11 -0.499817 1486.11 -0.499817 1486.11 -0.499817C1486.11 -0.499817 1486.11 -0.499817 1486.11 -0.499817C1486.11 -0.499817 1486.11 -0.499817 1486.11 -0.499817C1486.11 -0.499817 1486.11 -0.499817 1486.11 -0.499817C1486.11 -0.499817 1486.11 -0.499817 1486.11 -0.499817C1486.11 -0.499817 1486.11 -0.499817 1486.11 -0.499817C1486.11 -0.499817 1486.11 -0.499817 1486.11 -0.499817C1486.11 -0.499817 1486.11 -0.499817 1486.11 -0.499817C1486.11 -0.499817 1486.11 -0.499817 1486.11 -0.499817C1486.11 -0.499817 1486.11 -0.499817 1486.11 -0.499817C1486.11 -0.499817 1486.11 -0.499817 1486.11 -0.499817C1486.11 -0.499817 1486.11 -0.499817 1486.11 -0.499817C1486.11 -0.499817 1486.11 -0.499817 1486.11 -0.499817C1486.11 -0.499817 1486.11 -0.499817 1486.11 -0.499817C1486.11 -0.499817 1486.11 -0.499817 1486.11 -0.499817C1486.11 -0.499817 1486.11 -0.499817 1486.11 -0.499817C1486.11 -0.499817 1486.11 -0.499817 1486.11 -0.499817C1486.1 -0.499817 1486.1 -0.499817 1486.1 -0.499817C1486.1 -0.499817 1486.1 -0.499817 1486.1 -0.499817C1486.1 -0.499817 1486.1 -0.499817 1486.1 -0.499817C1486.1 -0.499817 1486.1 -0.499817 1486.1 -0.499817C1486.1 -0.499817 1486.1 -0.499817 1486.1 -0.499817C1486.1 -0.499817 1486.1 -0.499817 1486.1 -0.499817C1486.1 -0.499817 1486.1 -0.499817 1486.1 -0.499817C1486.1 -0.499817 1486.1 -0.499817 1486.1 -0.499817C1486.1 -0.499817 1486.1 -0.499817 1486.1 -0.499817C1486.1 -0.499817 1486.1 -0.499817 1486.1 -0.499817C1486.1 -0.499817 1486.1 -0.499817 1486.1 -0.499817C1486.1 -0.499817 1486.1 -0.499817 1486.1 -0.499817C1486.1 -0.499817 1486.1 -0.499817 1486.1 -0.499817C1486.1 -0.499817 1486.1 -0.499817 1486.1 -0.499817C1486.1 -0.499817 1486.1 -0.499817 1486.1 -0.499817C1486.1 -0.499817 1486.1 -0.499817 1486.1 -0.499817C1486.1 -0.499817 1486.1 -0.499817 1486.1 -0.499817C1486.1 -0.499817 1486.1 -0.499817 1486.1 -0.499817C1486.1 -0.499817 1486.1 -0.499817 1486.1 -0.499817C1486.1 -0.499817 1486.1 -0.499817 1486.1 -0.499817C1486.1 -0.499817 1486.1 -0.499817 1486.1 -0.499817C1486.1 -0.499817 1486.1 -0.499817 1486.1 -0.499817C1486.1 -0.499817 1486.1 -0.499817 1486.1 -0.499817C1486.1 -0.499817 1486.1 -0.499817 1486.1 -0.499817C1486.1 -0.499817 1486.1 -0.499817 1486.1 -0.499817C1486.1 -0.499817 1486.1 -0.499817 1486.1 -0.499817C1486.1 -0.499817 1486.1 -0.499817 1486.1 -0.499817C1486.1 -0.499817 1486.1 -0.499817 1486.1 -0.499817C1486.1 -0.499817 1486.1 -0.499817 1486.1 -0.499817C1486.1 -0.499817 1486.1 -0.499817 1486.1 -0.499817C1486.1 -0.499817 1486.1 -0.499817 1486.1 -0.499817C1486.1 -0.499817 1486.1 -0.499817 1486.1 -0.499817C1486.1 -0.499817 1486.1 -0.499817 1486.1 -0.499817C1486.1 -0.499817 1486.1 -0.499817 1486.1 -0.499817C1486.1 -0.499817 1486.1 -0.499817 1486.1 -0.499817C1486.1 -0.499817 1486.1 -0.499817 1486.1 -0.499817C1486.1 -0.499817 1486.1 -0.499817 1486.1 -0.499817C1486.1 -0.499817 1486.1 -0.499817 1486.1 -0.499817C1486.1 -0.499817 1486.1 -0.499817 1486.1 -0.499817C1486.1 -0.499817 1486.1 -0.499817 1486.1 -0.499817C1486.1 -0.499817 1486.1 -0.499817 1486.1 -0.499817C1486.1 -0.499817 1486.1 -0.499817 1486.1 -0.499817C1486.1 -0.499817 1486.1 -0.499817 1486.1 -0.499817C1486.1 -0.499817 1486.1 -0.499817 1486.1 -0.499817C1486.1 -0.499817 1486.1 -0.499817 1486.1 -0.499817C1486.1 -0.499817 1486.1 -0.499817 1486.1 -0.499817C1486.1 -0.499817 1486.1 -0.499817 1486.1 -0.499817C1486.1 -0.499817 1486.1 -0.499817 1486.1 -0.499817C1486.1 -0.499817 1486.1 -0.499817 1486.1 -0.499817C1486.1 -0.499817 1486.1 -0.499817 1486.1 -0.499817C1486.1 -0.499817 1486.1 -0.499817 1486.1 -0.499817C1486.1 -0.499817 1486.1 -0.499817 1486.1 -0.499817C1486.1 -0.499817 1486.1 -0.499817 1486.1 -0.499817C1486.1 -0.499817 1486.1 -0.499817 1486.1 -0.499817C1486.1 -0.499817 1486.1 -0.499817 1486.1 -0.499817C1486.1 -0.499817 1486.1 -0.499817 1486.1 -0.499817C1486.1 -0.499817 1486.1 -0.499817 1486.1 -0.499817C1486.1 -0.499817 1486.1 -0.499817 1486.1 -0.499817C1486.1 -0.499817 1486.1 -0.499817 1486.1 -0.499817C1486.1 -0.499817 1486.1 -0.499817 1486.1 -0.499817C1486.1 -0.499817 1486.1 -0.499817 1486.1 -0.499817C1486.1 -0.499817 1486.1 -0.499817 1486.1 -0.499817C1486.1 -0.499817 1486.1 -0.499817 1486.1 -0.499817C1486.1 -0.499817 1486.1 -0.499817 1486.1 -0.499817C1486.1 -0.499817 1486.1 -0.499817 1486.1 -0.499817C1486.1 -0.499817 1486.1 -0.499817 1486.1 -0.499817C1486.1 -0.499817 1486.1 -0.499817 1486.1 -0.499817C1486.1 -0.499817 1486.1 -0.499817 1486.1 -0.499817C1486.1 -0.499817 1486.1 -0.499817 1486.1 -0.499817C1486.1 -0.499817 1486.1 -0.499817 1486.1 -0.499817C1486.1 -0.499817 1486.1 -0.499817 1486.1 -0.499817C1486.1 -0.499817 1486.1 -0.499817 1486.1 -0.499817C1486.1 -0.499817 1486.1 -0.499817 1486.1 -0.499817C1486.1 -0.499817 1486.1 -0.499817 1486.1 -0.499817C1486.1 -0.499817 1486.1 -0.499817 1486.1 -0.499817C1486.1 -0.499817 1486.1 -0.499817 1486.1 -0.499817C1486.1 -0.499817 1486.1 -0.499817 1486.1 -0.499817C1486.1 -0.499817 1486.1 -0.499817 1486.1 -0.499817C1486.1 -0.499817 1486.1 -0.499817 1486.1 -0.499817C1486.1 -0.499817 1486.1 -0.499817 1486.1 -0.499817C1486.1 -0.499817 1486.1 -0.499817 1486.1 -0.499817C1486.1 -0.499817 1486.1 -0.499817 1486.1 -0.499817C1486.1 -0.499817 1486.1 -0.499817 1486.1 -0.499817C1486.1 -0.499817 1486.1 -0.499817 1486.1 -0.499817C1486.1 -0.499817 1486.1 -0.499817 1486.1 -0.499817C1486.1 -0.499817 1486.1 -0.499817 1486.1 -0.499817C1486.1 -0.499817 1486.1 -0.499817 1486.1 -0.499817C1486.1 -0.499817 1486.1 -0.499817 1486.1 -0.499817C1486.1 -0.499817 1486.1 -0.499817 1486.1 -0.499817C1486.1 -0.499817 1486.1 -0.499817 1486.1 -0.499817C1486.1 -0.499817 1486.1 -0.499817 1486.1 -0.499817C1486.1 -0.499817 1486.1 -0.499817 1486.1 -0.499817C1486.1 -0.499817 1486.1 -0.499817 1486.1 -0.499817C1486.1 -0.499817 1486.1 -0.499817 1486.1 -0.499817C1486.1 -0.499817 1486.1 -0.499817 1486.1 -0.499817C1486.1 -0.499817 1486.1 -0.499817 1486.1 -0.499817C1486.1 -0.499817 1486.1 -0.499817 1486.1 -0.499817C1486.1 -0.499817 1486.1 -0.499817 1486.1 -0.499817C1486.1 -0.499817 1486.1 -0.499817 1486.1 -0.499817C1486.1 -0.499817 1486.1 -0.499817 1486.1 -0.499817C1486.1 -0.499817 1486.1 -0.499817 1486.1 -0.499817C1486.1 -0.499817 1486.1 -0.499817 1486.1 -0.499817C1486.1 -0.499817 1486.1 -0.499817 1486.1 -0.499817C1486.1 -0.499817 1486.1 -0.499817 1486.1 -0.499817C1486.1 -0.499817 1486.1 -0.499817 1486.1 -0.499817C1486.1 -0.499817 1486.1 -0.499817 1486.1 -0.499817C1486.1 -0.499817 1486.1 -0.499817 1486.1 -0.499817C1486.1 -0.499817 1486.1 -0.499817 1486.1 -0.499817C1486.1 -0.499817 1486.1 -0.499817 1486.1 -0.499817C1486.1 -0.499817 1486.1 -0.499817 1486.1 -0.499817C1486.1 -0.499817 1486.1 -0.499817 1486.1 -0.499817C1486.1 -0.499817 1486.1 -0.499817 1486.1 -0.499817C1486.1 -0.499817 1486.1 -0.499817 1486.1 -0.499817C1486.1 -0.499817 1486.1 -0.499817 1486.1 -0.499817C1486.1 -0.499817 1486.1 -0.499817 1486.1 -0.499817C1486.1 -0.499817 1486.1 -0.499817 1486.1 -0.499817C1486.1 -0.499817 1486.1 -0.499817 1486.1 -0.499817C1486.1 -0.499817 1486.1 -0.499817 1486.1 -0.499817C1486.1 -0.499817 1486.1 -0.499817 1486.1 -0.499817C1486.1 -0.499817 1486.1 -0.499817 1486.1 -0.499817C1486.1 -0.499817 1486.1 -0.499817 1486.1 -0.499817C1486.1 -0.499817 1486.1 -0.499817 1486.1 -0.499817C1486.1 -0.499817 1486.1 -0.499817 1486.1 -0.499817C1486.1 -0.499817 1486.1 -0.499817 1486.1 -0.499817C1486.1 -0.499817 1486.1 -0.499817 1486.1 -0.499817C1486.1 -0.499817 1486.1 -0.499817 1486.1 -0.499817C1486.1 -0.499817 1486.1 -0.499817 1486.1 -0.499817C1486.1 -0.499817 1486.1 -0.499817 1486.1 -0.499817C1486.1 -0.499817 1486.1 -0.499817 1486.1 -0.499817C1486.1 -0.499817 1486.1 -0.499817 1486.1 -0.499817C1486.1 -0.499817 1486.1 -0.499817 1486.1 -0.499817C1486.1 -0.499817 1486.1 -0.499817 1486.1 -0.499817C1486.1 -0.499817 1486.1 -0.499817 1486.1 -0.499817C1486.1 -0.499817 1486.1 -0.499817 1486.1 -0.499817C1486.1 -0.499817 1486.1 -0.499817 1486.1 -0.499817C1486.1 -0.499817 1486.1 -0.499817 1486.1 -0.499817C1486.1 -0.499817 1486.1 -0.499817 1486.1 -0.499817C1486.1 -0.499817 1486.1 -0.499817 1486.1 -0.499817C1486.1 -0.499817 1486.1 -0.499817 1486.1 -0.499817C1486.1 -0.499817 1486.1 -0.499817 1486.1 -0.499817C1486.1 -0.499817 1486.1 -0.499817 1486.1 -0.499817C1486.1 -0.499817 1486.1 -0.499817 1486.1 -0.499817C1486.1 -0.499817 1486.1 -0.499817 1486.1 -0.499817C1486.1 -0.499817 1486.1 -0.499817 1486.1 -0.499817C1486.1 -0.499817 1486.1 -0.499817 1486.1 -0.499817C1486.1 -0.499817 1486.1 -0.499817 1486.1 -0.499817C1486.1 -0.499817 1486.1 -0.499817 1486.1 -0.499817C1486.1 -0.499817 1486.1 -0.499817 1486.1 -0.499817C1486.1 -0.499817 1486.1 -0.499817 1486.1 -0.499817C1486.1 -0.499817 1486.1 -0.499817 1486.1 -0.499817C1486.1 -0.499817 1486.1 -0.499817 1486.1 -0.499817C1486.1 -0.499817 1486.1 -0.499817 1486.1 -0.499817C1486.1 -0.499817 1486.1 -0.499817 1486.1 -0.499817C1486.1 -0.499817 1486.1 -0.499817 1486.1 -0.499817C1486.1 -0.499817 1486.1 -0.499817 1486.1 -0.499817C1486.1 -0.499817 1486.1 -0.499817 1486.1 -0.499817C1486.1 -0.499817 1486.1 -0.499817 1486.1 -0.499817C1486.1 -0.499817 1486.1 -0.499817 1486.1 -0.499817C1486.1 -0.499817 1486.1 -0.499817 1486.1 -0.499817C1486.1 -0.499817 1486.1 -0.499817 1486.1 -0.499817C1486.1 -0.499817 1486.1 -0.499817 1486.1 -0.499817C1486.1 -0.499817 1486.1 -0.499817 1486.1 -0.499817C1486.1 -0.499817 1486.1 -0.499817 1486.1 -0.499817C1486.1 -0.499817 1486.1 -0.499817 1486.1 -0.499817C1486.1 -0.499817 1486.1 -0.499817 1486.1 -0.499817C1486.1 -0.499817 1486.1 -0.499817 1486.1 -0.499817C1486.1 -0.499817 1486.1 -0.499817 1486.1 -0.499817C1486.1 -0.499817 1486.1 -0.499817 1486.1 -0.499817C1486.1 -0.499817 1486.1 -0.499817 1486.1 -0.499817C1486.1 -0.499817 1486.1 -0.499817 1486.1 -0.499817C1486.1 -0.499817 1486.1 -0.499817 1486.1 -0.499817C1486.1 -0.499817 1486.1 -0.499817 1486.1 -0.499817C1486.1 -0.499817 1486.1 -0.499817 1486.1 -0.499817C1486.1 -0.499817 1486.1 -0.499817 1486.1 -0.499817C1486.1 -0.499817 1486.1 -0.499817 1486.1 -0.499817C1486.1 -0.499817 1486.1 -0.499817 1486.1 -0.499817C1486.1 -0.499817 1486.1 -0.499817 1486.1 -0.499817C1486.1 -0.499817 1486.1 -0.499817 1486.1 -0.499817C1486.1 -0.499817 1486.1 -0.499817 1486.1 -0.499817C1486.1 -0.499817 1486.1 -0.499817 1486.1 -0.499817C1486.1 -0.499817 1486.1 -0.499817 1486.1 -0.499817C1486.1 -0.499817 1486.1 -0.499817 1486.1 -0.499817C1486.1 -0.499817 1486.1 -0.499817 1486.1 -0.499817C1486.1 -0.499817 1486.1 -0.499817 1486.1 -0.499817C1486.1 -0.499817 1486.1 -0.499817 1486.1 -0.499817C1486.1 -0.499817 1486.1 -0.499817 1486.1 -0.499817C1486.1 -0.499817 1486.1 -0.499817 1486.1 -0.499817C1486.1 -0.499817 1486.1 -0.499817 1486.1 -0.499817C1486.1 -0.499817 1486.1 -0.499817 1486.1 -0.499817C1486.1 -0.499817 1486.1 -0.499817 1486.1 -0.499817C1486.1 -0.499817 1486.1 -0.499817 1486.1 -0.499817C1486.1 -0.499817 1486.1 -0.499817 1486.1 -0.499817C1486.1 -0.499817 1486.1 -0.499817 1486.1 -0.499817C1486.1 -0.499817 1486.1 -0.499817 1486.1 -0.499817C1486.1 -0.499817 1486.1 -0.499817 1486.1 -0.499817C1486.1 -0.499817 1486.1 -0.499817 1486.1 -0.499817C1486.1 -0.499817 1486.1 -0.499817 1486.1 -0.499817C1486.1 -0.499817 1486.1 -0.499817 1486.1 -0.499817C1486.1 -0.499817 1486.1 -0.499817 1486.1 -0.499817C1486.1 -0.499817 1486.1 -0.499817 1486.1 -0.499817C1486.1 -0.499817 1486.1 -0.499817 1486.1 -0.499817C1486.1 -0.499817 1486.1 -0.499817 1486.1 -0.499817C1486.1 -0.499817 1486.1 -0.499817 1486.1 -0.499817C1486.1 -0.499817 1486.1 -0.499817 1486.1 -0.499817C1486.1 -0.499817 1486.1 -0.499817 1486.1 -0.499817C1486.1 -0.499817 1486.1 -0.499817 1486.1 -0.499817C1486.1 -0.499817 1486.1 -0.499817 1486.1 -0.499817C1486.1 -0.499817 1486.1 -0.499817 1486.1 -0.499817C1486.1 -0.499817 1486.1 -0.499817 1486.1 -0.499817C1486.1 -0.499817 1486.1 -0.499817 1486.1 -0.499817C1486.1 -0.499817 1486.1 -0.499817 1486.1 -0.499817C1486.1 -0.499817 1486.1 -0.499817 1486.1 -0.499817C1486.1 -0.499817 1486.1 -0.499817 1486.1 -0.499817C1486.1 -0.499817 1486.1 -0.499817 1486.1 -0.499817C1486.1 -0.499817 1486.1 -0.499817 1486.1 -0.499817C1486.1 -0.499817 1486.1 -0.499817 1486.1 -0.499817C1486.1 -0.499817 1486.1 -0.499817 1486.1 -0.499817C1486.1 -0.499817 1486.1 -0.499817 1486.1 -0.499817C1486.1 -0.499817 1486.1 -0.499817 1486.1 -0.499817C1486.1 -0.499817 1486.1 -0.499817 1486.1 -0.499817C1486.1 -0.499817 1486.1 -0.499817 1486.1 -0.499817C1486.1 -0.499817 1486.1 -0.499817 1486.1 -0.499817C1486.1 -0.499817 1486.1 -0.499817 1486.1 -0.499817C1486.1 -0.499817 1486.1 -0.499817 1486.1 -0.499817C1486.1 -0.499817 1486.1 -0.499817 1486.1 -0.499817C1486.1 -0.499817 1486.1 -0.499817 1486.1 -0.499817C1486.1 -0.499817 1486.1 -0.499817 1486.1 -0.499817C1486.1 -0.499817 1486.1 -0.499817 1486.1 -0.499817C1486.1 -0.499817 1486.1 -0.499817 1486.1 -0.499817C1486.1 -0.499817 1486.1 -0.499817 1486.1 -0.499817C1486.1 -0.499817 1486.1 -0.499817 1486.1 -0.499817C1486.1 -0.499817 1486.1 -0.499817 1486.1 -0.499817C1486.1 -0.499817 1486.1 -0.499817 1486.1 -0.499817C1486.1 -0.499817 1486.1 -0.499817 1486.1 -0.499817C1486.1 -0.499817 1486.1 -0.499817 1486.1 -0.499817C1486.1 -0.499817 1486.1 -0.499817 1486.1 -0.499817C1486.1 -0.499817 1486.1 -0.499817 1486.1 -0.499817C1486.1 -0.499817 1486.1 -0.499817 1486.1 -0.499817C1486.1 -0.499817 1486.1 -0.499817 1486.1 -0.499817C1486.1 -0.499817 1486.1 -0.499817 1486.1 -0.499817C1486.1 -0.499817 1486.1 -0.499817 1486.1 -0.499817C1486.1 -0.499817 1486.1 -0.499817 1486.1 -0.499817C1486.1 -0.499817 1486.1 -0.499817 1486.1 -0.499817C1486.1 -0.499817 1486.1 -0.499817 1486.1 -0.499817C1486.1 -0.499817 1486.1 -0.499817 1486.1 -0.499817C1486.1 -0.499817 1486.1 -0.499817 1486.1 -0.499817C1486.1 -0.499817 1486.1 -0.499817 1486.1 -0.499817C1486.1 -0.499817 1486.1 -0.499817 1486.1 -0.499817C1486.1 -0.499817 1486.1 -0.499817 1486.1 -0.499817C1486.1 -0.499817 1486.1 -0.499817 1486.1 -0.499817C1486.1 -0.499817 1486.1 -0.499817 1486.1 -0.499817C1486.1 -0.499817 1486.1 -0.499817 1486.1 -0.499817C1486.1 -0.499817 1486.1 -0.499817 1486.1 -0.499817C1486.1 -0.499817 1486.1 -0.499817 1486.1 -0.499817C1486.1 -0.499817 1486.1 -0.499817 1486.1 -0.499817C1486.1 -0.499817 1486.1 -0.499817 1486.1 -0.499817C1486.1 -0.499817 1486.1 -0.499817 1486.1 -0.499817C1486.1 -0.499817 1486.1 -0.499817 1486.1 -0.499817C1486.1 -0.499817 1486.1 -0.499817 1486.1 -0.499817C1486.1 -0.499817 1486.1 -0.499817 1486.1 -0.499817C1486.1 -0.499817 1486.1 -0.499817 1486.1 -0.499817C1486.1 -0.499817 1486.1 -0.499817 1486.1 -0.499817C1486.1 -0.499817 1486.1 -0.499817 1486.1 -0.499817C1486.1 -0.499817 1486.1 -0.499817 1486.1 -0.499817C1486.1 -0.499817 1486.1 -0.499817 1486.1 -0.499817C1486.1 -0.499817 1486.1 -0.499817 1486.1 -0.499817C1486.1 -0.499817 1486.1 -0.499817 1486.1 -0.499817C1486.1 -0.499817 1486.1 -0.499817 1486.1 -0.499817C1486.1 -0.499817 1486.1 -0.499817 1486.1 -0.499817C1486.1 -0.499817 1486.1 -0.499817 1486.1 -0.499817C1486.1 -0.499817 1486.1 -0.499817 1486.1 -0.499817C1486.1 -0.499817 1486.1 -0.499817 1486.1 -0.499817C1486.1 -0.499817 1486.1 -0.499817 1486.1 -0.499817C1486.1 -0.499817 1486.1 -0.499817 1486.1 -0.499817C1486.1 -0.499817 1486.1 -0.499817 1486.1 -0.499817C1486.1 -0.499817 1486.1 -0.499817 1486.1 -0.499817C1486.1 -0.499817 1486.1 -0.499817 1486.1 -0.499817C1486.1 -0.499817 1486.1 -0.499817 1486.1 -0.499817C1486.1 -0.499817 1486.1 -0.499817 1486.1 -0.499817C1486.1 -0.499817 1486.1 -0.499817 1486.1 -0.499817C1486.1 -0.499817 1486.1 -0.499817 1486.1 -0.499817C1486.1 -0.499817 1486.1 -0.499817 1486.1 -0.499817C1486.1 -0.499817 1486.1 -0.499817 1486.1 -0.499817C1486.1 -0.499817 1486.1 -0.499817 1486.1 -0.499817C1486.1 -0.499817 1486.1 -0.499817 1486.1 -0.499817C1486.1 -0.499817 1486.1 -0.499817 1486.1 -0.499817C1486.1 -0.499817 1486.1 -0.499817 1486.1 -0.499817C1486.1 -0.499817 1486.1 -0.499817 1486.1 -0.499817C1486.1 -0.499817 1486.1 -0.499817 1486.1 -0.499817C1486.1 -0.499817 1486.1 -0.499817 1486.1 -0.499817C1486.1 -0.499817 1486.1 -0.499817 1486.1 -0.499817C1486.1 -0.499817 1486.1 -0.499817 1486.1 -0.499817C1486.1 -0.499817 1486.1 -0.499817 1486.1 -0.499817C1486.1 -0.499817 1486.1 -0.499817 1486.1 -0.499817C1486.1 -0.499817 1486.1 -0.499817 1486.1 -0.499817C1486.1 -0.499817 1486.1 -0.499817 1486.1 -0.499817C1486.1 -0.499817 1486.1 -0.499817 1486.1 -0.499817C1486.1 -0.499817 1486.1 -0.499817 1486.1 -0.499817C1486.1 -0.499817 1486.1 -0.499817 1486.1 -0.499817C1486.1 -0.499817 1486.1 -0.499817 1486.1 -0.499817C1486.1 -0.499817 1486.1 -0.499817 1486.1 -0.499817C1486.1 -0.499817 1486.1 -0.499817 1486.1 -0.499817C1486.1 -0.499817 1486.1 -0.499817 1486.1 -0.499817C1486.1 -0.499817 1486.1 -0.499817 1486.1 -0.499817C1486.1 -0.499817 1486.1 -0.499817 1486.1 -0.499817C1486.1 -0.499817 1486.1 -0.499817 1486.1 -0.499817C1486.1 -0.499817 1486.1 -0.499817 1486.1 -0.499817C1486.1 -0.499817 1486.1 -0.499817 1486.1 -0.499817C1486.1 -0.499817 1486.1 -0.499817 1486.1 -0.499817C1486.1 -0.499817 1486.1 -0.499817 1486.1 -0.499817C1486.1 -0.499817 1486.1 -0.499817 1486.1 -0.499817C1486.1 -0.499817 1486.1 -0.499817 1486.1 -0.499817C1486.1 -0.499817 1486.1 -0.499817 1486.1 -0.499817C1486.1 -0.499817 1486.1 -0.499817 1486.1 -0.499817C1486.1 -0.499817 1486.1 -0.499817 1486.1 -0.499817C1486.1 -0.499817 1486.1 -0.499817 1486.1 -0.499817C1486.1 -0.499817 1486.1 -0.499817 1486.1 -0.499817C1486.1 -0.499817 1486.1 -0.499817 1486.1 -0.499817C1486.1 -0.499817 1486.1 -0.499817 1486.1 -0.499817C1486.1 -0.499817 1486.1 -0.499817 1486.1 -0.499817C1486.1 -0.499817 1486.1 -0.499817 1486.1 -0.499817C1486.1 -0.499817 1486.1 -0.499817 1486.1 -0.499817C1486.1 -0.499817 1486.1 -0.499817 1486.1 -0.499817C1486.1 -0.499817 1486.1 -0.499817 1486.1 -0.499817C1486.1 -0.499817 1486.1 -0.499817 1486.1 -0.499817V-1.49982C1486.1 -1.49982 1486.1 -1.49982 1486.1 -1.49982C1486.1 -1.49982 1486.1 -1.49982 1486.1 -1.49982C1486.1 -1.49982 1486.1 -1.49982 1486.1 -1.49982C1486.1 -1.49982 1486.1 -1.49982 1486.1 -1.49982C1486.1 -1.49982 1486.1 -1.49982 1486.1 -1.49982C1486.1 -1.49982 1486.1 -1.49982 1486.1 -1.49982C1486.1 -1.49982 1486.1 -1.49982 1486.1 -1.49982C1486.1 -1.49982 1486.1 -1.49982 1486.1 -1.49982C1486.1 -1.49982 1486.1 -1.49982 1486.1 -1.49982C1486.1 -1.49982 1486.1 -1.49982 1486.1 -1.49982C1486.1 -1.49982 1486.1 -1.49982 1486.1 -1.49982C1486.1 -1.49982 1486.1 -1.49982 1486.1 -1.49982C1486.1 -1.49982 1486.1 -1.49982 1486.1 -1.49982C1486.1 -1.49982 1486.1 -1.49982 1486.1 -1.49982C1486.1 -1.49982 1486.1 -1.49982 1486.1 -1.49982C1486.1 -1.49982 1486.1 -1.49982 1486.1 -1.49982C1486.1 -1.49982 1486.1 -1.49982 1486.1 -1.49982C1486.1 -1.49982 1486.1 -1.49982 1486.1 -1.49982C1486.1 -1.49982 1486.1 -1.49982 1486.1 -1.49982C1486.1 -1.49982 1486.1 -1.49982 1486.1 -1.49982C1486.1 -1.49982 1486.1 -1.49982 1486.1 -1.49982C1486.1 -1.49982 1486.1 -1.49982 1486.1 -1.49982C1486.1 -1.49982 1486.1 -1.49982 1486.1 -1.49982C1486.1 -1.49982 1486.1 -1.49982 1486.1 -1.49982C1486.1 -1.49982 1486.1 -1.49982 1486.1 -1.49982C1486.1 -1.49982 1486.1 -1.49982 1486.1 -1.49982C1486.1 -1.49982 1486.1 -1.49982 1486.1 -1.49982C1486.1 -1.49982 1486.1 -1.49982 1486.1 -1.49982C1486.1 -1.49982 1486.1 -1.49982 1486.1 -1.49982C1486.1 -1.49982 1486.1 -1.49982 1486.1 -1.49982C1486.1 -1.49982 1486.1 -1.49982 1486.1 -1.49982C1486.1 -1.49982 1486.1 -1.49982 1486.1 -1.49982C1486.1 -1.49982 1486.1 -1.49982 1486.1 -1.49982C1486.1 -1.49982 1486.1 -1.49982 1486.1 -1.49982C1486.1 -1.49982 1486.1 -1.49982 1486.1 -1.49982C1486.1 -1.49982 1486.1 -1.49982 1486.1 -1.49982C1486.1 -1.49982 1486.1 -1.49982 1486.1 -1.49982C1486.1 -1.49982 1486.1 -1.49982 1486.1 -1.49982C1486.1 -1.49982 1486.1 -1.49982 1486.1 -1.49982C1486.1 -1.49982 1486.1 -1.49982 1486.1 -1.49982C1486.1 -1.49982 1486.1 -1.49982 1486.1 -1.49982C1486.1 -1.49982 1486.1 -1.49982 1486.1 -1.49982C1486.1 -1.49982 1486.1 -1.49982 1486.1 -1.49982C1486.1 -1.49982 1486.1 -1.49982 1486.1 -1.49982C1486.1 -1.49982 1486.1 -1.49982 1486.1 -1.49982C1486.1 -1.49982 1486.1 -1.49982 1486.1 -1.49982C1486.1 -1.49982 1486.1 -1.49982 1486.1 -1.49982C1486.1 -1.49982 1486.1 -1.49982 1486.1 -1.49982C1486.1 -1.49982 1486.1 -1.49982 1486.1 -1.49982C1486.1 -1.49982 1486.1 -1.49982 1486.1 -1.49982C1486.1 -1.49982 1486.1 -1.49982 1486.1 -1.49982C1486.1 -1.49982 1486.1 -1.49982 1486.1 -1.49982C1486.1 -1.49982 1486.1 -1.49982 1486.1 -1.49982C1486.1 -1.49982 1486.1 -1.49982 1486.1 -1.49982C1486.1 -1.49982 1486.1 -1.49982 1486.1 -1.49982C1486.1 -1.49982 1486.1 -1.49982 1486.1 -1.49982C1486.1 -1.49982 1486.1 -1.49982 1486.1 -1.49982C1486.1 -1.49982 1486.1 -1.49982 1486.1 -1.49982C1486.1 -1.49982 1486.1 -1.49982 1486.1 -1.49982C1486.1 -1.49982 1486.1 -1.49982 1486.1 -1.49982C1486.1 -1.49982 1486.1 -1.49982 1486.1 -1.49982C1486.1 -1.49982 1486.1 -1.49982 1486.1 -1.49982C1486.1 -1.49982 1486.1 -1.49982 1486.1 -1.49982C1486.1 -1.49982 1486.1 -1.49982 1486.1 -1.49982C1486.1 -1.49982 1486.1 -1.49982 1486.1 -1.49982C1486.1 -1.49982 1486.1 -1.49982 1486.1 -1.49982C1486.1 -1.49982 1486.1 -1.49982 1486.1 -1.49982C1486.1 -1.49982 1486.1 -1.49982 1486.1 -1.49982C1486.1 -1.49982 1486.1 -1.49982 1486.1 -1.49982C1486.1 -1.49982 1486.1 -1.49982 1486.1 -1.49982C1486.1 -1.49982 1486.1 -1.49982 1486.1 -1.49982C1486.1 -1.49982 1486.1 -1.49982 1486.1 -1.49982C1486.1 -1.49982 1486.1 -1.49982 1486.1 -1.49982C1486.1 -1.49982 1486.1 -1.49982 1486.1 -1.49982C1486.1 -1.49982 1486.1 -1.49982 1486.1 -1.49982C1486.1 -1.49982 1486.1 -1.49982 1486.1 -1.49982C1486.1 -1.49982 1486.1 -1.49982 1486.1 -1.49982C1486.1 -1.49982 1486.1 -1.49982 1486.1 -1.49982C1486.1 -1.49982 1486.1 -1.49982 1486.1 -1.49982C1486.1 -1.49982 1486.1 -1.49982 1486.1 -1.49982C1486.1 -1.49982 1486.1 -1.49982 1486.1 -1.49982C1486.1 -1.49982 1486.1 -1.49982 1486.1 -1.49982C1486.1 -1.49982 1486.1 -1.49982 1486.1 -1.49982C1486.1 -1.49982 1486.1 -1.49982 1486.1 -1.49982C1486.1 -1.49982 1486.1 -1.49982 1486.1 -1.49982C1486.1 -1.49982 1486.1 -1.49982 1486.1 -1.49982C1486.1 -1.49982 1486.1 -1.49982 1486.1 -1.49982C1486.1 -1.49982 1486.1 -1.49982 1486.1 -1.49982C1486.1 -1.49982 1486.1 -1.49982 1486.1 -1.49982C1486.1 -1.49982 1486.1 -1.49982 1486.1 -1.49982C1486.1 -1.49982 1486.1 -1.49982 1486.1 -1.49982C1486.1 -1.49982 1486.1 -1.49982 1486.1 -1.49982C1486.1 -1.49982 1486.1 -1.49982 1486.1 -1.49982C1486.1 -1.49982 1486.1 -1.49982 1486.1 -1.49982C1486.1 -1.49982 1486.1 -1.49982 1486.1 -1.49982C1486.1 -1.49982 1486.1 -1.49982 1486.1 -1.49982C1486.1 -1.49982 1486.1 -1.49982 1486.1 -1.49982C1486.1 -1.49982 1486.1 -1.49982 1486.1 -1.49982C1486.1 -1.49982 1486.1 -1.49982 1486.1 -1.49982C1486.1 -1.49982 1486.1 -1.49982 1486.1 -1.49982C1486.1 -1.49982 1486.1 -1.49982 1486.1 -1.49982C1486.1 -1.49982 1486.1 -1.49982 1486.1 -1.49982C1486.1 -1.49982 1486.1 -1.49982 1486.1 -1.49982C1486.1 -1.49982 1486.1 -1.49982 1486.1 -1.49982C1486.1 -1.49982 1486.1 -1.49982 1486.1 -1.49982C1486.1 -1.49982 1486.1 -1.49982 1486.1 -1.49982C1486.1 -1.49982 1486.1 -1.49982 1486.1 -1.49982C1486.1 -1.49982 1486.1 -1.49982 1486.1 -1.49982C1486.1 -1.49982 1486.1 -1.49982 1486.1 -1.49982C1486.1 -1.49982 1486.1 -1.49982 1486.1 -1.49982C1486.1 -1.49982 1486.1 -1.49982 1486.1 -1.49982C1486.1 -1.49982 1486.1 -1.49982 1486.1 -1.49982C1486.1 -1.49982 1486.1 -1.49982 1486.1 -1.49982C1486.1 -1.49982 1486.1 -1.49982 1486.1 -1.49982C1486.1 -1.49982 1486.1 -1.49982 1486.1 -1.49982C1486.1 -1.49982 1486.1 -1.49982 1486.1 -1.49982C1486.1 -1.49982 1486.1 -1.49982 1486.1 -1.49982C1486.1 -1.49982 1486.1 -1.49982 1486.1 -1.49982C1486.1 -1.49982 1486.1 -1.49982 1486.1 -1.49982C1486.1 -1.49982 1486.1 -1.49982 1486.1 -1.49982C1486.1 -1.49982 1486.1 -1.49982 1486.1 -1.49982C1486.1 -1.49982 1486.1 -1.49982 1486.1 -1.49982C1486.1 -1.49982 1486.1 -1.49982 1486.1 -1.49982C1486.1 -1.49982 1486.1 -1.49982 1486.1 -1.49982C1486.1 -1.49982 1486.1 -1.49982 1486.1 -1.49982C1486.1 -1.49982 1486.1 -1.49982 1486.1 -1.49982C1486.1 -1.49982 1486.1 -1.49982 1486.1 -1.49982C1486.1 -1.49982 1486.1 -1.49982 1486.1 -1.49982C1486.1 -1.49982 1486.1 -1.49982 1486.1 -1.49982C1486.1 -1.49982 1486.1 -1.49982 1486.1 -1.49982C1486.1 -1.49982 1486.1 -1.49982 1486.1 -1.49982C1486.1 -1.49982 1486.1 -1.49982 1486.1 -1.49982C1486.1 -1.49982 1486.1 -1.49982 1486.1 -1.49982C1486.1 -1.49982 1486.1 -1.49982 1486.1 -1.49982C1486.1 -1.49982 1486.1 -1.49982 1486.1 -1.49982C1486.1 -1.49982 1486.1 -1.49982 1486.1 -1.49982C1486.1 -1.49982 1486.1 -1.49982 1486.1 -1.49982C1486.1 -1.49982 1486.1 -1.49982 1486.1 -1.49982C1486.1 -1.49982 1486.1 -1.49982 1486.1 -1.49982C1486.1 -1.49982 1486.1 -1.49982 1486.1 -1.49982C1486.1 -1.49982 1486.1 -1.49982 1486.1 -1.49982C1486.1 -1.49982 1486.1 -1.49982 1486.1 -1.49982C1486.1 -1.49982 1486.1 -1.49982 1486.1 -1.49982C1486.1 -1.49982 1486.1 -1.49982 1486.1 -1.49982C1486.1 -1.49982 1486.1 -1.49982 1486.1 -1.49982C1486.1 -1.49982 1486.1 -1.49982 1486.1 -1.49982C1486.1 -1.49982 1486.1 -1.49982 1486.1 -1.49982C1486.1 -1.49982 1486.1 -1.49982 1486.1 -1.49982C1486.1 -1.49982 1486.1 -1.49982 1486.1 -1.49982C1486.1 -1.49982 1486.1 -1.49982 1486.1 -1.49982C1486.1 -1.49982 1486.1 -1.49982 1486.1 -1.49982C1486.1 -1.49982 1486.1 -1.49982 1486.1 -1.49982C1486.1 -1.49982 1486.1 -1.49982 1486.1 -1.49982C1486.1 -1.49982 1486.1 -1.49982 1486.1 -1.49982C1486.1 -1.49982 1486.1 -1.49982 1486.1 -1.49982C1486.1 -1.49982 1486.1 -1.49982 1486.1 -1.49982C1486.1 -1.49982 1486.1 -1.49982 1486.1 -1.49982C1486.1 -1.49982 1486.1 -1.49982 1486.1 -1.49982C1486.1 -1.49982 1486.1 -1.49982 1486.1 -1.49982C1486.1 -1.49982 1486.1 -1.49982 1486.1 -1.49982C1486.1 -1.49982 1486.1 -1.49982 1486.1 -1.49982C1486.1 -1.49982 1486.1 -1.49982 1486.1 -1.49982C1486.1 -1.49982 1486.1 -1.49982 1486.1 -1.49982C1486.1 -1.49982 1486.1 -1.49982 1486.1 -1.49982C1486.1 -1.49982 1486.1 -1.49982 1486.1 -1.49982C1486.1 -1.49982 1486.1 -1.49982 1486.1 -1.49982C1486.1 -1.49982 1486.1 -1.49982 1486.1 -1.49982C1486.1 -1.49982 1486.1 -1.49982 1486.1 -1.49982C1486.1 -1.49982 1486.1 -1.49982 1486.1 -1.49982C1486.1 -1.49982 1486.1 -1.49982 1486.1 -1.49982C1486.1 -1.49982 1486.1 -1.49982 1486.1 -1.49982C1486.1 -1.49982 1486.1 -1.49982 1486.1 -1.49982C1486.1 -1.49982 1486.1 -1.49982 1486.1 -1.49982C1486.1 -1.49982 1486.1 -1.49982 1486.1 -1.49982C1486.1 -1.49982 1486.1 -1.49982 1486.1 -1.49982C1486.1 -1.49982 1486.1 -1.49982 1486.1 -1.49982C1486.1 -1.49982 1486.1 -1.49982 1486.1 -1.49982C1486.1 -1.49982 1486.1 -1.49982 1486.1 -1.49982C1486.1 -1.49982 1486.1 -1.49982 1486.1 -1.49982C1486.1 -1.49982 1486.1 -1.49982 1486.1 -1.49982C1486.1 -1.49982 1486.1 -1.49982 1486.1 -1.49982C1486.1 -1.49982 1486.1 -1.49982 1486.1 -1.49982C1486.1 -1.49982 1486.1 -1.49982 1486.1 -1.49982C1486.1 -1.49982 1486.1 -1.49982 1486.1 -1.49982C1486.1 -1.49982 1486.1 -1.49982 1486.1 -1.49982C1486.1 -1.49982 1486.1 -1.49982 1486.1 -1.49982C1486.1 -1.49982 1486.1 -1.49982 1486.1 -1.49982C1486.1 -1.49982 1486.1 -1.49982 1486.1 -1.49982C1486.1 -1.49982 1486.1 -1.49982 1486.1 -1.49982C1486.1 -1.49982 1486.1 -1.49982 1486.1 -1.49982C1486.1 -1.49982 1486.1 -1.49982 1486.1 -1.49982C1486.1 -1.49982 1486.1 -1.49982 1486.1 -1.49982C1486.1 -1.49982 1486.1 -1.49982 1486.1 -1.49982C1486.1 -1.49982 1486.1 -1.49982 1486.1 -1.49982C1486.1 -1.49982 1486.1 -1.49982 1486.1 -1.49982C1486.1 -1.49982 1486.1 -1.49982 1486.1 -1.49982C1486.1 -1.49982 1486.1 -1.49982 1486.1 -1.49982C1486.1 -1.49982 1486.1 -1.49982 1486.1 -1.49982C1486.1 -1.49982 1486.1 -1.49982 1486.1 -1.49982C1486.1 -1.49982 1486.1 -1.49982 1486.1 -1.49982C1486.1 -1.49982 1486.1 -1.49982 1486.1 -1.49982C1486.1 -1.49982 1486.1 -1.49982 1486.1 -1.49982C1486.1 -1.49982 1486.1 -1.49982 1486.1 -1.49982C1486.1 -1.49982 1486.1 -1.49982 1486.1 -1.49982C1486.1 -1.49982 1486.1 -1.49982 1486.1 -1.49982C1486.1 -1.49982 1486.1 -1.49982 1486.1 -1.49982C1486.1 -1.49982 1486.1 -1.49982 1486.1 -1.49982C1486.1 -1.49982 1486.1 -1.49982 1486.1 -1.49982C1486.1 -1.49982 1486.1 -1.49982 1486.1 -1.49982C1486.1 -1.49982 1486.1 -1.49982 1486.1 -1.49982C1486.1 -1.49982 1486.1 -1.49982 1486.1 -1.49982C1486.1 -1.49982 1486.1 -1.49982 1486.1 -1.49982C1486.1 -1.49982 1486.1 -1.49982 1486.1 -1.49982C1486.1 -1.49982 1486.1 -1.49982 1486.1 -1.49982C1486.1 -1.49982 1486.1 -1.49982 1486.1 -1.49982C1486.1 -1.49982 1486.1 -1.49982 1486.1 -1.49982C1486.1 -1.49982 1486.1 -1.49982 1486.1 -1.49982C1486.1 -1.49982 1486.1 -1.49982 1486.1 -1.49982C1486.1 -1.49982 1486.1 -1.49982 1486.1 -1.49982C1486.1 -1.49982 1486.1 -1.49982 1486.1 -1.49982C1486.1 -1.49982 1486.1 -1.49982 1486.1 -1.49982C1486.1 -1.49982 1486.1 -1.49982 1486.1 -1.49982C1486.1 -1.49982 1486.1 -1.49982 1486.1 -1.49982C1486.1 -1.49982 1486.1 -1.49982 1486.1 -1.49982C1486.1 -1.49982 1486.1 -1.49982 1486.1 -1.49982C1486.1 -1.49982 1486.1 -1.49982 1486.1 -1.49982C1486.1 -1.49982 1486.1 -1.49982 1486.1 -1.49982C1486.1 -1.49982 1486.1 -1.49982 1486.1 -1.49982C1486.1 -1.49982 1486.1 -1.49982 1486.1 -1.49982C1486.1 -1.49982 1486.1 -1.49982 1486.1 -1.49982C1486.1 -1.49982 1486.1 -1.49982 1486.1 -1.49982C1486.1 -1.49982 1486.1 -1.49982 1486.1 -1.49982C1486.1 -1.49982 1486.1 -1.49982 1486.1 -1.49982C1486.1 -1.49982 1486.1 -1.49982 1486.1 -1.49982C1486.1 -1.49982 1486.1 -1.49982 1486.1 -1.49982C1486.1 -1.49982 1486.1 -1.49982 1486.1 -1.49982C1486.1 -1.49982 1486.1 -1.49982 1486.1 -1.49982C1486.1 -1.49982 1486.1 -1.49982 1486.1 -1.49982C1486.1 -1.49982 1486.1 -1.49982 1486.1 -1.49982C1486.1 -1.49982 1486.1 -1.49982 1486.1 -1.49982C1486.1 -1.49982 1486.1 -1.49982 1486.1 -1.49982C1486.1 -1.49982 1486.1 -1.49982 1486.1 -1.49982C1486.1 -1.49982 1486.1 -1.49982 1486.1 -1.49982C1486.1 -1.49982 1486.1 -1.49982 1486.1 -1.49982C1486.1 -1.49982 1486.1 -1.49982 1486.1 -1.49982C1486.1 -1.49982 1486.1 -1.49982 1486.1 -1.49982C1486.1 -1.49982 1486.1 -1.49982 1486.1 -1.49982C1486.1 -1.49982 1486.1 -1.49982 1486.1 -1.49982C1486.1 -1.49982 1486.1 -1.49982 1486.1 -1.49982C1486.1 -1.49982 1486.1 -1.49982 1486.1 -1.49982C1486.1 -1.49982 1486.1 -1.49982 1486.1 -1.49982C1486.1 -1.49982 1486.1 -1.49982 1486.1 -1.49982C1486.1 -1.49982 1486.1 -1.49982 1486.1 -1.49982C1486.1 -1.49982 1486.1 -1.49982 1486.1 -1.49982C1486.1 -1.49982 1486.1 -1.49982 1486.1 -1.49982C1486.1 -1.49982 1486.1 -1.49982 1486.1 -1.49982C1486.1 -1.49982 1486.1 -1.49982 1486.1 -1.49982C1486.1 -1.49982 1486.1 -1.49982 1486.1 -1.49982C1486.1 -1.49982 1486.1 -1.49982 1486.1 -1.49982C1486.1 -1.49982 1486.1 -1.49982 1486.1 -1.49982C1486.1 -1.49982 1486.1 -1.49982 1486.1 -1.49982C1486.1 -1.49982 1486.1 -1.49982 1486.1 -1.49982C1486.1 -1.49982 1486.1 -1.49982 1486.1 -1.49982C1486.1 -1.49982 1486.1 -1.49982 1486.1 -1.49982C1486.1 -1.49982 1486.1 -1.49982 1486.1 -1.49982C1486.1 -1.49982 1486.1 -1.49982 1486.1 -1.49982C1486.1 -1.49982 1486.1 -1.49982 1486.1 -1.49982C1486.1 -1.49982 1486.1 -1.49982 1486.1 -1.49982C1486.1 -1.49982 1486.1 -1.49982 1486.1 -1.49982C1486.1 -1.49982 1486.1 -1.49982 1486.1 -1.49982C1486.1 -1.49982 1486.1 -1.49982 1486.1 -1.49982C1486.1 -1.49982 1486.1 -1.49982 1486.1 -1.49982C1486.1 -1.49982 1486.1 -1.49982 1486.1 -1.49982C1486.1 -1.49982 1486.1 -1.49982 1486.1 -1.49982C1486.1 -1.49982 1486.1 -1.49982 1486.1 -1.49982C1486.1 -1.49982 1486.1 -1.49982 1486.1 -1.49982C1486.1 -1.49982 1486.1 -1.49982 1486.1 -1.49982C1486.1 -1.49982 1486.1 -1.49982 1486.1 -1.49982C1486.1 -1.49982 1486.1 -1.49982 1486.1 -1.49982C1486.1 -1.49982 1486.1 -1.49982 1486.1 -1.49982C1486.1 -1.49982 1486.1 -1.49982 1486.1 -1.49982C1486.1 -1.49982 1486.1 -1.49982 1486.1 -1.49982C1486.1 -1.49982 1486.1 -1.49982 1486.1 -1.49982C1486.1 -1.49982 1486.1 -1.49982 1486.1 -1.49982C1486.1 -1.49982 1486.1 -1.49982 1486.1 -1.49982C1486.1 -1.49982 1486.1 -1.49982 1486.1 -1.49982C1486.1 -1.49982 1486.1 -1.49982 1486.1 -1.49982C1486.1 -1.49982 1486.1 -1.49982 1486.1 -1.49982C1486.1 -1.49982 1486.1 -1.49982 1486.1 -1.49982C1486.1 -1.49982 1486.1 -1.49982 1486.1 -1.49982C1486.1 -1.49982 1486.1 -1.49982 1486.1 -1.49982C1486.1 -1.49982 1486.1 -1.49982 1486.1 -1.49982C1486.1 -1.49982 1486.1 -1.49982 1486.1 -1.49982C1486.1 -1.49982 1486.1 -1.49982 1486.1 -1.49982C1486.1 -1.49982 1486.1 -1.49982 1486.1 -1.49982C1486.1 -1.49982 1486.1 -1.49982 1486.1 -1.49982C1486.1 -1.49982 1486.1 -1.49982 1486.1 -1.49982C1486.1 -1.49982 1486.1 -1.49982 1486.1 -1.49982C1486.1 -1.49982 1486.1 -1.49982 1486.1 -1.49982C1486.1 -1.49982 1486.1 -1.49982 1486.1 -1.49982C1486.1 -1.49982 1486.1 -1.49982 1486.1 -1.49982C1486.1 -1.49982 1486.1 -1.49982 1486.1 -1.49982C1486.1 -1.49982 1486.1 -1.49982 1486.1 -1.49982C1486.1 -1.49982 1486.1 -1.49982 1486.1 -1.49982C1486.1 -1.49982 1486.1 -1.49982 1486.1 -1.49982C1486.1 -1.49982 1486.1 -1.49982 1486.1 -1.49982C1486.1 -1.49982 1486.1 -1.49982 1486.1 -1.49982C1486.1 -1.49982 1486.1 -1.49982 1486.1 -1.49982C1486.1 -1.49982 1486.1 -1.49982 1486.1 -1.49982C1486.1 -1.49982 1486.1 -1.49982 1486.1 -1.49982C1486.1 -1.49982 1486.1 -1.49982 1486.1 -1.49982C1486.1 -1.49982 1486.1 -1.49982 1486.1 -1.49982C1486.1 -1.49982 1486.1 -1.49982 1486.1 -1.49982C1486.1 -1.49982 1486.1 -1.49982 1486.1 -1.49982C1486.1 -1.49982 1486.1 -1.49982 1486.1 -1.49982C1486.1 -1.49982 1486.1 -1.49982 1486.1 -1.49982C1486.1 -1.49982 1486.1 -1.49982 1486.1 -1.49982C1486.1 -1.49982 1486.1 -1.49982 1486.1 -1.49982C1486.1 -1.49982 1486.1 -1.49982 1486.1 -1.49982C1486.1 -1.49982 1486.1 -1.49982 1486.1 -1.49982C1486.1 -1.49982 1486.1 -1.49982 1486.1 -1.49982C1486.1 -1.49982 1486.1 -1.49982 1486.1 -1.49982C1486.1 -1.49982 1486.1 -1.49982 1486.1 -1.49982C1486.1 -1.49982 1486.1 -1.49982 1486.1 -1.49982C1486.1 -1.49982 1486.1 -1.49982 1486.11 -1.49982C1486.11 -1.49982 1486.11 -1.49982 1486.11 -1.49982C1486.11 -1.49982 1486.11 -1.49982 1486.11 -1.49982C1486.11 -1.49982 1486.11 -1.49982 1486.11 -1.49982C1486.11 -1.49982 1486.11 -1.49982 1486.11 -1.49982C1486.11 -1.49982 1486.11 -1.49982 1486.11 -1.49982C1486.11 -1.49982 1486.11 -1.49982 1486.11 -1.49982C1486.11 -1.49982 1486.11 -1.49982 1486.11 -1.49982C1486.11 -1.49982 1486.11 -1.49982 1486.11 -1.49982C1486.11 -1.49982 1486.11 -1.49982 1486.11 -1.49982C1486.11 -1.49982 1486.11 -1.49982 1486.11 -1.49982C1486.11 -1.49982 1486.11 -1.49982 1486.11 -1.49982C1486.11 -1.49982 1486.11 -1.49982 1486.11 -1.49982C1486.11 -1.49982 1486.11 -1.49982 1486.11 -1.49982C1486.11 -1.49982 1486.11 -1.49982 1486.11 -1.49982C1486.11 -1.49982 1486.11 -1.49982 1486.11 -1.49982C1486.11 -1.49982 1486.11 -1.49982 1486.11 -1.49982C1486.11 -1.49982 1486.11 -1.49982 1486.11 -1.49982C1486.11 -1.49982 1486.11 -1.49982 1486.11 -1.49982C1486.11 -1.49982 1486.11 -1.49982 1486.11 -1.49982C1486.11 -1.49982 1486.11 -1.49982 1486.11 -1.49982C1486.11 -1.49982 1486.11 -1.49982 1486.11 -1.49982C1486.11 -1.49982 1486.11 -1.49982 1486.11 -1.49982C1486.11 -1.49982 1486.11 -1.49982 1486.11 -1.49982C1486.11 -1.49982 1486.11 -1.49982 1486.11 -1.49982C1486.11 -1.49982 1486.11 -1.49982 1486.11 -1.49982C1486.11 -1.49982 1486.11 -1.49982 1486.11 -1.49982C1486.11 -1.49982 1486.11 -1.49982 1486.11 -1.49982C1486.11 -1.49982 1486.11 -1.49982 1486.11 -1.49982C1486.11 -1.49982 1486.11 -1.49982 1486.11 -1.49982C1486.11 -1.49982 1486.11 -1.49982 1486.11 -1.49982C1486.11 -1.49982 1486.11 -1.49982 1486.11 -1.49982C1486.11 -1.49982 1486.11 -1.49982 1486.11 -1.49982C1486.11 -1.49982 1486.11 -1.49982 1486.11 -1.49982C1486.11 -1.49982 1486.11 -1.49982 1486.11 -1.49982C1486.11 -1.49982 1486.11 -1.49982 1486.11 -1.49982C1486.11 -1.49982 1486.11 -1.49982 1486.11 -1.49982C1486.11 -1.49982 1486.11 -1.49982 1486.11 -1.49982C1486.11 -1.49982 1486.11 -1.49982 1486.11 -1.49982C1486.11 -1.49982 1486.11 -1.49982 1486.11 -1.49982C1486.11 -1.49982 1486.11 -1.49982 1486.11 -1.49982C1486.11 -1.49982 1486.11 -1.49982 1486.11 -1.49982C1486.11 -1.49982 1486.11 -1.49982 1486.11 -1.49982C1486.11 -1.49982 1486.11 -1.49982 1486.11 -1.49982C1486.11 -1.49982 1486.11 -1.49982 1486.11 -1.49982C1486.11 -1.49982 1486.11 -1.49982 1486.11 -1.49982C1486.11 -1.49982 1486.11 -1.49982 1486.11 -1.49982C1486.11 -1.49982 1486.11 -1.49982 1486.11 -1.49982C1486.11 -1.49982 1486.11 -1.49982 1486.11 -1.49982C1486.11 -1.49982 1486.11 -1.49982 1486.11 -1.49982C1486.11 -1.49982 1486.11 -1.49982 1486.11 -1.49982C1486.11 -1.49982 1486.11 -1.49982 1486.11 -1.49982C1486.11 -1.49982 1486.11 -1.49982 1486.11 -1.49982C1486.11 -1.49982 1486.11 -1.49982 1486.11 -1.49982C1486.11 -1.49982 1486.11 -1.49982 1486.11 -1.49982C1486.11 -1.49982 1486.11 -1.49982 1486.11 -1.49982C1486.11 -1.49982 1486.11 -1.49982 1486.11 -1.49982C1486.11 -1.49982 1486.11 -1.49982 1486.11 -1.49982C1486.11 -1.49982 1486.11 -1.49982 1486.11 -1.49982C1486.11 -1.49982 1486.11 -1.49982 1486.11 -1.49982C1486.11 -1.49982 1486.11 -1.49982 1486.11 -1.49982C1486.11 -1.49982 1486.11 -1.49982 1486.11 -1.49982C1486.11 -1.49982 1486.11 -1.49982 1486.11 -1.49982C1486.11 -1.49982 1486.11 -1.49982 1486.11 -1.49982C1486.11 -1.49982 1486.11 -1.49982 1486.11 -1.49982C1486.11 -1.49982 1486.11 -1.49982 1486.11 -1.49982C1486.11 -1.49982 1486.11 -1.49982 1486.11 -1.49982C1486.11 -1.49982 1486.11 -1.49982 1486.11 -1.49982C1486.11 -1.49982 1486.11 -1.49982 1486.11 -1.49982C1486.11 -1.49982 1486.11 -1.49982 1486.11 -1.49982C1486.11 -1.49982 1486.11 -1.49982 1486.11 -1.49982C1486.11 -1.49982 1486.11 -1.49982 1486.11 -1.49982C1486.11 -1.49982 1486.11 -1.49982 1486.11 -1.49982C1486.11 -1.49982 1486.11 -1.49982 1486.11 -1.49982C1486.11 -1.49982 1486.11 -1.49982 1486.11 -1.49982C1486.11 -1.49982 1486.11 -1.49982 1486.11 -1.49982C1486.11 -1.49982 1486.11 -1.49982 1486.11 -1.49982C1486.11 -1.49982 1486.11 -1.49982 1486.11 -1.49982C1486.11 -1.49982 1486.11 -1.49982 1486.11 -1.49982C1486.11 -1.49982 1486.11 -1.49982 1486.11 -1.49982C1486.11 -1.49982 1486.11 -1.49982 1486.11 -1.49982C1486.11 -1.49982 1486.11 -1.49982 1486.11 -1.49982C1486.11 -1.49982 1486.11 -1.49982 1486.11 -1.49982C1486.11 -1.49982 1486.11 -1.49982 1486.11 -1.49982C1486.11 -1.49982 1486.11 -1.49982 1486.11 -1.49982C1486.11 -1.49982 1486.11 -1.49982 1486.11 -1.49982C1486.11 -1.49982 1486.11 -1.49982 1486.11 -1.49982C1486.11 -1.49982 1486.11 -1.49982 1486.11 -1.49982C1486.11 -1.49982 1486.11 -1.49982 1486.11 -1.49982C1486.11 -1.49982 1486.11 -1.49982 1486.11 -1.49982C1486.11 -1.49982 1486.11 -1.49982 1486.11 -1.49982C1486.11 -1.49982 1486.11 -1.49982 1486.11 -1.49982C1486.11 -1.49982 1486.11 -1.49982 1486.11 -1.49982C1486.11 -1.49982 1486.11 -1.49982 1486.11 -1.49982C1486.11 -1.49982 1486.11 -1.49982 1486.11 -1.49982C1486.11 -1.49982 1486.11 -1.49982 1486.11 -1.49982C1486.11 -1.49982 1486.11 -1.49982 1486.11 -1.49982C1486.11 -1.49982 1486.11 -1.49982 1486.11 -1.49982C1486.11 -1.49982 1486.11 -1.49982 1486.11 -1.49982C1486.11 -1.49982 1486.11 -1.49982 1486.11 -1.49982C1486.11 -1.49982 1486.11 -1.49982 1486.11 -1.49982C1486.11 -1.49982 1486.11 -1.49982 1486.11 -1.49982C1486.11 -1.49982 1486.11 -1.49982 1486.11 -1.49982C1486.11 -1.49982 1486.11 -1.49982 1486.11 -1.49982C1486.11 -1.49982 1486.11 -1.49982 1486.11 -1.49982C1486.11 -1.49982 1486.11 -1.49982 1486.11 -1.49982C1486.11 -1.49982 1486.11 -1.49982 1486.11 -1.49982C1486.11 -1.49982 1486.11 -1.49982 1486.11 -1.49982C1486.11 -1.49982 1486.11 -1.49982 1486.11 -1.49982C1486.11 -1.49982 1486.11 -1.49982 1486.11 -1.49982C1486.11 -1.49982 1486.11 -1.49982 1486.11 -1.49982C1486.11 -1.49982 1486.11 -1.49982 1486.11 -1.49982C1486.11 -1.49982 1486.11 -1.49982 1486.11 -1.49982C1486.11 -1.49982 1486.11 -1.49982 1486.11 -1.49982C1486.11 -1.49982 1486.11 -1.49982 1486.11 -1.49982C1486.11 -1.49982 1486.11 -1.49982 1486.11 -1.49982C1486.11 -1.49982 1486.11 -1.49982 1486.11 -1.49982C1486.11 -1.49982 1486.11 -1.49982 1486.11 -1.49982C1486.11 -1.49982 1486.11 -1.49982 1486.11 -1.49982C1486.11 -1.49982 1486.11 -1.49982 1486.11 -1.49982C1486.11 -1.49982 1486.11 -1.49982 1486.11 -1.49982C1486.11 -1.49982 1486.11 -1.49982 1486.11 -1.49982C1486.11 -1.49982 1486.11 -1.49982 1486.11 -1.49982C1486.11 -1.49982 1486.11 -1.49982 1486.11 -1.49982C1486.11 -1.49982 1486.11 -1.49982 1486.11 -1.49982C1486.11 -1.49982 1486.11 -1.49982 1486.11 -1.49982C1486.11 -1.49982 1486.11 -1.49982 1486.11 -1.49982C1486.11 -1.49982 1486.11 -1.49982 1486.11 -1.49982C1486.11 -1.49982 1486.11 -1.49982 1486.11 -1.49982C1486.11 -1.49982 1486.11 -1.49982 1486.11 -1.49982C1486.11 -1.49982 1486.11 -1.49982 1486.11 -1.49982C1486.11 -1.49982 1486.11 -1.49982 1486.11 -1.49982C1486.11 -1.49982 1486.11 -1.49982 1486.11 -1.49982C1486.11 -1.49982 1486.11 -1.49982 1486.11 -1.49982C1486.11 -1.49982 1486.11 -1.49982 1486.11 -1.49982C1486.11 -1.49982 1486.11 -1.49982 1486.11 -1.49982C1486.11 -1.49982 1486.11 -1.49982 1486.11 -1.49982C1486.11 -1.49982 1486.11 -1.49982 1486.11 -1.49982C1486.11 -1.49982 1486.11 -1.49982 1486.11 -1.49982C1486.11 -1.49982 1486.11 -1.49982 1486.11 -1.49982C1486.11 -1.49982 1486.11 -1.49982 1486.11 -1.49982C1486.11 -1.49982 1486.11 -1.49982 1486.11 -1.49982C1486.11 -1.49982 1486.11 -1.49982 1486.11 -1.49982C1486.11 -1.49982 1486.11 -1.49982 1486.11 -1.49982C1486.11 -1.49982 1486.11 -1.49982 1486.11 -1.49982C1486.11 -1.49982 1486.11 -1.49982 1486.11 -1.49982C1486.11 -1.49982 1486.11 -1.49982 1486.11 -1.49982C1486.11 -1.49982 1486.11 -1.49982 1486.11 -1.49982C1486.11 -1.49982 1486.11 -1.49982 1486.11 -1.49982C1486.11 -1.49982 1486.11 -1.49982 1486.11 -1.49982C1486.11 -1.49982 1486.11 -1.49982 1486.11 -1.49982C1486.11 -1.49982 1486.11 -1.49982 1486.11 -1.49982C1486.11 -1.49982 1486.11 -1.49982 1486.11 -1.49982C1486.11 -1.49982 1486.11 -1.49982 1486.11 -1.49982C1486.11 -1.49982 1486.11 -1.49982 1486.11 -1.49982C1486.11 -1.49982 1486.11 -1.49982 1486.11 -1.49982C1486.11 -1.49982 1486.11 -1.49982 1486.11 -1.49982C1486.11 -1.49982 1486.11 -1.49982 1486.11 -1.49982C1486.11 -1.49982 1486.11 -1.49982 1486.11 -1.49982C1486.11 -1.49982 1486.11 -1.49982 1486.11 -1.49982C1486.11 -1.49982 1486.11 -1.49982 1486.11 -1.49982C1486.11 -1.49982 1486.11 -1.49982 1486.11 -1.49982C1486.11 -1.49982 1486.11 -1.49982 1486.11 -1.49982C1486.11 -1.49982 1486.11 -1.49982 1486.11 -1.49982C1486.11 -1.49982 1486.11 -1.49982 1486.11 -1.49982C1486.11 -1.49982 1486.11 -1.49982 1486.11 -1.49982C1486.11 -1.49982 1486.11 -1.49982 1486.11 -1.49982C1486.11 -1.49982 1486.11 -1.49982 1486.11 -1.49982C1486.11 -1.49982 1486.11 -1.49982 1486.11 -1.49982C1486.11 -1.49982 1486.11 -1.49982 1486.11 -1.49982C1486.11 -1.49982 1486.11 -1.49982 1486.11 -1.49982C1486.11 -1.49982 1486.11 -1.49982 1486.11 -1.49982C1486.11 -1.49982 1486.11 -1.49982 1486.11 -1.49982C1486.11 -1.49982 1486.11 -1.49982 1486.11 -1.49982C1486.11 -1.49982 1486.11 -1.49982 1486.11 -1.49982C1486.11 -1.49982 1486.11 -1.49982 1486.11 -1.49982C1486.11 -1.49982 1486.11 -1.49982 1486.11 -1.49982C1486.11 -1.49982 1486.11 -1.49982 1486.11 -1.49982C1486.11 -1.49982 1486.11 -1.49982 1486.11 -1.49982C1486.11 -1.49982 1486.11 -1.49982 1486.11 -1.49982C1486.11 -1.49982 1486.11 -1.49982 1486.11 -1.49982C1486.11 -1.49982 1486.11 -1.49982 1486.11 -1.49982C1486.11 -1.49982 1486.11 -1.49982 1486.11 -1.49982C1486.11 -1.49982 1486.11 -1.49982 1486.11 -1.49982C1486.11 -1.49982 1486.11 -1.49982 1486.11 -1.49982C1486.11 -1.49982 1486.11 -1.49982 1486.11 -1.49982C1486.11 -1.49982 1486.11 -1.49982 1486.11 -1.49982C1486.11 -1.49982 1486.11 -1.49982 1486.11 -1.49982V-0.499817ZM1486.1 -0.499817C1150.37 -0.499817 878.134 271.348 877.5 606.932L876.5 606.93C877.135 270.795 1149.82 -1.49982 1486.1 -1.49982V-0.499817Z" fill="#D7D7D7"/>
</g>
</svg>
