<svg width="649" height="561" viewBox="0 0 649 561" fill="none" xmlns="http://www.w3.org/2000/svg">
<rect width="560" height="1.00003" transform="matrix(4.37114e-08 -1 -1 -4.37114e-08 258 560)" fill="#D7D7D7"/>
<circle cx="129" cy="129" r="128.5" transform="matrix(-1 0 0 1 258 303)" stroke="#D7D7D7"/>
<rect x="-0.5" y="0.5" width="233" height="91" transform="matrix(-1 0 0 1 257 0)" stroke="#D7D7D7"/>
<mask id="path-4-inside-1_2732_128" fill="white">
<path fill-rule="evenodd" clip-rule="evenodd" d="M648.221 561C492.355 561 366 435.416 366 280.5C366 125.584 492.355 -1.10689e-05 648.221 -2.47231e-05L648.221 561Z"/>
</mask>
<path d="M648.221 561L649.221 561L649.221 562L648.221 562L648.221 561ZM648.221 -2.47231e-05L648.221 -1.00002L649.221 -1.00002L649.221 -2.48107e-05L648.221 -2.47231e-05ZM367 280.5C367 434.858 492.901 560 648.221 560L648.221 562C491.808 562 365 435.974 365 280.5L367 280.5ZM648.221 0.999975C492.901 0.999989 367 126.142 367 280.5L365 280.5C365 125.026 491.808 -1.00001 648.221 -1.00002L648.221 0.999975ZM647.221 561L647.221 -2.46355e-05L649.221 -2.48107e-05L649.221 561L647.221 561Z" fill="#D7D7D7" mask="url(#path-4-inside-1_2732_128)"/>
</svg>
