<svg width="1467" height="561" viewBox="0 0 1467 561" fill="none" xmlns="http://www.w3.org/2000/svg">
<rect x="492" y="561" width="484" height="1.00003" transform="rotate(-90 492 561)" fill="#D7D7D7"/>
<rect width="234" height="1" transform="matrix(-1 0 0 1 492 327)" fill="#D7D7D7"/>
<rect width="560" height="1.00003" transform="matrix(4.37114e-08 -1 -1 -4.37114e-08 977 560)" fill="#D7D7D7"/>
<rect width="560" height="1.00003" transform="matrix(4.37114e-08 -1 -1 -4.37114e-08 258 561)" fill="#D7D7D7"/>
<rect width="195" height="1.00001" transform="matrix(5.79701e-08 -1 -1 -3.29598e-08 493 195)" fill="#D7D7D7"/>
<mask id="path-6-inside-1_2716_125" fill="white">
<path fill-rule="evenodd" clip-rule="evenodd" d="M1466.61 561C1310.74 561 1184.39 435.416 1184.39 280.5C1184.39 125.584 1310.74 -1.10689e-05 1466.61 -2.47231e-05L1466.61 561Z"/>
</mask>
<path d="M1466.61 561L1467.61 561L1467.61 562L1466.61 562L1466.61 561ZM1466.61 -2.47231e-05L1466.61 -1.00002L1467.61 -1.00002L1467.61 -2.48107e-05L1466.61 -2.47231e-05ZM1185.39 280.5C1185.39 434.858 1311.29 560 1466.61 560L1466.61 562C1310.2 562 1183.39 435.974 1183.39 280.5L1185.39 280.5ZM1466.61 0.999975C1311.29 0.999989 1185.39 126.142 1185.39 280.5L1183.39 280.5C1183.39 125.026 1310.2 -1.00001 1466.61 -1.00002L1466.61 0.999975ZM1465.61 561L1465.61 -2.46355e-05L1467.61 -2.48107e-05L1467.61 561L1465.61 561Z" fill="#D7D7D7" mask="url(#path-6-inside-1_2716_125)"/>
<circle cx="129" cy="129" r="128.5" transform="matrix(-1 0 0 1 258 303)" stroke="#D7D7D7"/>
<rect x="-0.5" y="0.5" width="233" height="92" transform="matrix(-1 0 0 1 257 0)" stroke="#D7D7D7"/>
</svg>
